solid OpenSCAD_Model
  facet normal -0.994522 -0.104529 0
    outer loop
      vertex -40 2 0
      vertex -39.8907 0.960442 0
      vertex -40 2 3
    endloop
  endfacet
  facet normal -0.994522 -0.104529 0
    outer loop
      vertex -40 2 3
      vertex -39.8907 0.960442 0
      vertex -39.8907 0.960442 3
    endloop
  endfacet
  facet normal 0 0 -1
    outer loop
      vertex -40 2 0
      vertex -39.8907 3.03956 0
      vertex -39.8907 0.960442 0
    endloop
  endfacet
  facet normal 0 0 -1
    outer loop
      vertex -39.8907 0.960442 0
      vertex -39.8907 3.03956 0
      vertex -39.5677 4.03368 0
    endloop
  endfacet
  facet normal 0 0 -1
    outer loop
      vertex -39.8907 0.960442 0
      vertex -39.5677 4.03368 0
      vertex -39.0451 4.93893 0
    endloop
  endfacet
  facet normal 0 0 -1
    outer loop
      vertex -39.8907 0.960442 0
      vertex -39.0451 4.93893 0
      vertex -38.3457 5.71572 0
    endloop
  endfacet
  facet normal 0 0 -1
    outer loop
      vertex -39.8907 0.960442 0
      vertex -38.3457 5.71572 0
      vertex -37.5 6.33013 0
    endloop
  endfacet
  facet normal 0 0 -1
    outer loop
      vertex -39.8907 0.960442 0
      vertex -37.5 6.33013 0
      vertex -36.5451 6.75528 0
    endloop
  endfacet
  facet normal 0 0 -1
    outer loop
      vertex -39.8907 0.960442 0
      vertex -36.5451 6.75528 0
      vertex -35.5226 6.97261 0
    endloop
  endfacet
  facet normal 0 0 -1
    outer loop
      vertex -39.8907 0.960442 0
      vertex -35.5226 6.97261 0
      vertex -34.4774 6.97261 0
    endloop
  endfacet
  facet normal 0 0 -1
    outer loop
      vertex -33.3556 2.73213 0
      vertex -34.4774 6.97261 0
      vertex -16.9353 4.70715 0
    endloop
  endfacet
  facet normal 0 0 -1
    outer loop
      vertex -10.9935 0.492268 0
      vertex -16.9923 4.5505 0
      vertex 6.5 -4 0
    endloop
  endfacet
  facet normal 0 0 -1
    outer loop
      vertex 6.5 -4 0
      vertex 6.62816 -3.64789 0
      vertex 11.0225 -8.53054 0
    endloop
  endfacet
  facet normal 0 0 -1
    outer loop
      vertex -37.317 -1.88347 0
      vertex -39.8907 0.960442 0
      vertex -22.683 -1.88347 0
    endloop
  endfacet
  facet normal 0 0 -1
    outer loop
      vertex 8.32616 -8.24162 0
      vertex 11.0225 -8.53054 0
      vertex 11.2839 -8.98316 0
    endloop
  endfacet
  facet normal 0 0 -1
    outer loop
      vertex 8.33929 -8.61769 0
      vertex 11.2839 -8.98316 0
      vertex 11.4454 -9.48022 0
    endloop
  endfacet
  facet normal 0 0 -1
    outer loop
      vertex 8.27395 -8.98828 0
      vertex 11.4454 -9.48022 0
      vertex 11.5 -10 0
    endloop
  endfacet
  facet normal 0 0 -1
    outer loop
      vertex 7.65187 -9.91055 0
      vertex 11.4454 -10.5198 0
      vertex 11.2839 -11.0168 0
    endloop
  endfacet
  facet normal 0 0 -1
    outer loop
      vertex 6.97914 -10.2387 0
      vertex 11.2839 -11.0168 0
      vertex 11.0225 -11.4695 0
    endloop
  endfacet
  facet normal 0 0 -1
    outer loop
      vertex 5 -10.8782 0
      vertex 10.25 -12.1651 0
      vertex 9.77254 -12.3776 0
    endloop
  endfacet
  facet normal 0 0 -1
    outer loop
      vertex -8.36881 -4.92604 0
      vertex 4.81341 -7.99598 0
      vertex 4.74806 -8.36657 0
    endloop
  endfacet
  facet normal 0 0 -1
    outer loop
      vertex -35.1882 0.209861 0
      vertex -22.683 -1.88347 0
      vertex -39.8907 0.960442 0
    endloop
  endfacet
  facet normal 0 0 -1
    outer loop
      vertex -36.6444 1.26787 0
      vertex -39.8907 0.960442 0
      vertex -36.7607 1.62576 0
    endloop
  endfacet
  facet normal 0 0 -1
    outer loop
      vertex -39.8907 0.960442 0
      vertex -37.317 -1.88347 0
      vertex -37.9342 -2.01466 0
    endloop
  endfacet
  facet normal 0 0 -1
    outer loop
      vertex -39.8907 0.960442 0
      vertex -37.9342 -2.01466 0
      vertex -38.3457 -1.71572 0
    endloop
  endfacet
  facet normal 0 0 -1
    outer loop
      vertex -39.8907 0.960442 0
      vertex -38.3457 -1.71572 0
      vertex -39.0451 -0.938926 0
    endloop
  endfacet
  facet normal 0 0 -1
    outer loop
      vertex -39.8907 0.960442 0
      vertex -39.0451 -0.938926 0
      vertex -39.5677 -0.033683 0
    endloop
  endfacet
  facet normal 0 0 -1
    outer loop
      vertex -13.6914 -1.61564 0
      vertex -33.5438 0.941987 0
      vertex -13.7825 -1.25051 0
    endloop
  endfacet
  facet normal 0 0 -1
    outer loop
      vertex -39.8907 0.960442 0
      vertex -36.8 2 0
      vertex -36.7607 1.62576 0
    endloop
  endfacet
  facet normal 0 0 -1
    outer loop
      vertex -33.2393 2.37424 0
      vertex -16.9353 4.70715 0
      vertex -16.9923 4.5505 0
    endloop
  endfacet
  facet normal 0 0 -1
    outer loop
      vertex -39.8907 0.960442 0
      vertex -36.6444 1.26787 0
      vertex -36.4562 0.941987 0
    endloop
  endfacet
  facet normal 0 0 -1
    outer loop
      vertex -33.5438 0.941987 0
      vertex -13.6914 -1.61564 0
      vertex -33.7956 0.662339 0
    endloop
  endfacet
  facet normal 0 0 -1
    outer loop
      vertex -39.8907 0.960442 0
      vertex -36.4562 0.941987 0
      vertex -36.2044 0.662339 0
    endloop
  endfacet
  facet normal 0 0 -1
    outer loop
      vertex -34.8118 0.209861 0
      vertex -22.683 -1.88347 0
      vertex -35.1882 0.209861 0
    endloop
  endfacet
  facet normal 0 0 -1
    outer loop
      vertex -34.4438 0.288098 0
      vertex -22.683 -1.88347 0
      vertex -34.8118 0.209861 0
    endloop
  endfacet
  facet normal 0 0 -1
    outer loop
      vertex -35.9 0.441154 0
      vertex -35.5562 0.288098 0
      vertex -39.8907 0.960442 0
    endloop
  endfacet
  facet normal 0 0 -1
    outer loop
      vertex -35.5562 0.288098 0
      vertex -35.1882 0.209861 0
      vertex -39.8907 0.960442 0
    endloop
  endfacet
  facet normal 0 0 -1
    outer loop
      vertex -13.5265 -1.95386 0
      vertex -22.683 -1.88347 0
      vertex -34.4438 0.288098 0
    endloop
  endfacet
  facet normal 0 0 -1
    outer loop
      vertex -10.4107 -1.84505 0
      vertex 6.5 -4 0
      vertex -10.6211 -2.15702 0
    endloop
  endfacet
  facet normal 0 0 -1
    outer loop
      vertex -13.5265 -1.95386 0
      vertex -34.4438 0.288098 0
      vertex -34.1 0.441154 0
    endloop
  endfacet
  facet normal 0 0 -1
    outer loop
      vertex -33.3556 1.26787 0
      vertex -16.9923 4.5505 0
      vertex -33.5438 0.941987 0
    endloop
  endfacet
  facet normal 0 0 -1
    outer loop
      vertex -33.2 2 0
      vertex -16.9923 4.5505 0
      vertex -33.2393 1.62576 0
    endloop
  endfacet
  facet normal 0 0 -1
    outer loop
      vertex -33.2393 1.62576 0
      vertex -16.9923 4.5505 0
      vertex -33.3556 1.26787 0
    endloop
  endfacet
  facet normal 0 0 -1
    outer loop
      vertex -33.2393 2.37424 0
      vertex -16.9923 4.5505 0
      vertex -33.2 2 0
    endloop
  endfacet
  facet normal 0 0 -1
    outer loop
      vertex -35.9 0.441154 0
      vertex -39.8907 0.960442 0
      vertex -36.2044 0.662339 0
    endloop
  endfacet
  facet normal 0 0 -1
    outer loop
      vertex -33.3556 2.73213 0
      vertex -16.9353 4.70715 0
      vertex -33.2393 2.37424 0
    endloop
  endfacet
  facet normal 0 0 -1
    outer loop
      vertex -33.5438 3.05801 0
      vertex -34.4774 6.97261 0
      vertex -33.3556 2.73213 0
    endloop
  endfacet
  facet normal 0 0 -1
    outer loop
      vertex -36.2044 3.33766 0
      vertex -34.4774 6.97261 0
      vertex -35.9 3.55885 0
    endloop
  endfacet
  facet normal 0 0 -1
    outer loop
      vertex -33.7956 3.33766 0
      vertex -34.4774 6.97261 0
      vertex -33.5438 3.05801 0
    endloop
  endfacet
  facet normal 0 0 -1
    outer loop
      vertex -34.1 3.55885 0
      vertex -34.4774 6.97261 0
      vertex -33.7956 3.33766 0
    endloop
  endfacet
  facet normal 0 0 -1
    outer loop
      vertex -34.4438 3.7119 0
      vertex -34.4774 6.97261 0
      vertex -34.1 3.55885 0
    endloop
  endfacet
  facet normal 0 0 -1
    outer loop
      vertex -34.8118 3.79014 0
      vertex -34.4774 6.97261 0
      vertex -34.4438 3.7119 0
    endloop
  endfacet
  facet normal 0 0 -1
    outer loop
      vertex -35.1882 3.79014 0
      vertex -34.4774 6.97261 0
      vertex -34.8118 3.79014 0
    endloop
  endfacet
  facet normal 0 0 -1
    outer loop
      vertex -35.5562 3.7119 0
      vertex -34.4774 6.97261 0
      vertex -35.1882 3.79014 0
    endloop
  endfacet
  facet normal 0 0 -1
    outer loop
      vertex -35.9 3.55885 0
      vertex -34.4774 6.97261 0
      vertex -35.5562 3.7119 0
    endloop
  endfacet
  facet normal 0 0 -1
    outer loop
      vertex -10.2697 -1.49615 0
      vertex 6.5 -4 0
      vertex -10.4107 -1.84505 0
    endloop
  endfacet
  facet normal 0 0 -1
    outer loop
      vertex -39.8907 0.960442 0
      vertex -34.4774 6.97261 0
      vertex -36.2044 3.33766 0
    endloop
  endfacet
  facet normal 0 0 -1
    outer loop
      vertex -39.8907 0.960442 0
      vertex -36.2044 3.33766 0
      vertex -36.4562 3.05801 0
    endloop
  endfacet
  facet normal 0 0 -1
    outer loop
      vertex -39.8907 0.960442 0
      vertex -36.4562 3.05801 0
      vertex -36.6444 2.73213 0
    endloop
  endfacet
  facet normal 0 0 -1
    outer loop
      vertex -39.8907 0.960442 0
      vertex -36.6444 2.73213 0
      vertex -36.7607 2.37424 0
    endloop
  endfacet
  facet normal 0 0 -1
    outer loop
      vertex -39.8907 0.960442 0
      vertex -36.7607 2.37424 0
      vertex -36.8 2 0
    endloop
  endfacet
  facet normal 0 0 -1
    outer loop
      vertex -33.5438 0.941987 0
      vertex -16.9923 4.5505 0
      vertex -13.7956 -0.874439 0
    endloop
  endfacet
  facet normal 0 0 -1
    outer loop
      vertex -33.5438 0.941987 0
      vertex -13.7956 -0.874439 0
      vertex -13.7825 -1.25051 0
    endloop
  endfacet
  facet normal 0 0 -1
    outer loop
      vertex -13.2948 -2.25039 0
      vertex -22.683 -1.88347 0
      vertex -13.5265 -1.95386 0
    endloop
  endfacet
  facet normal 0 0 -1
    outer loop
      vertex -12.6743 -2.66893 0
      vertex -22.683 -1.88347 0
      vertex -13.0065 -2.49227 0
    endloop
  endfacet
  facet normal 0 0 -1
    outer loop
      vertex -13.0065 -2.49227 0
      vertex -22.683 -1.88347 0
      vertex -13.2948 -2.25039 0
    endloop
  endfacet
  facet normal 0 0 -1
    outer loop
      vertex -11.2109 -2.61783 0
      vertex 6.5 -4 0
      vertex -11.5645 -2.74653 0
    endloop
  endfacet
  facet normal 0 0 -1
    outer loop
      vertex 5.1648 -7.33511 0
      vertex -11.9372 -2.7989 0
      vertex 5.43549 -7.07371 0
    endloop
  endfacet
  facet normal 0 0 -1
    outer loop
      vertex -12.6743 -2.66893 0
      vertex -12.3126 -2.77265 0
      vertex -22.683 -1.88347 0
    endloop
  endfacet
  facet normal 0 0 -1
    outer loop
      vertex 6.5 -4 0
      vertex -11.9372 -2.7989 0
      vertex -11.5645 -2.74653 0
    endloop
  endfacet
  facet normal 0 0 -1
    outer loop
      vertex -10.8918 -2.41842 0
      vertex 6.5 -4 0
      vertex -11.2109 -2.61783 0
    endloop
  endfacet
  facet normal 0 0 -1
    outer loop
      vertex -10.6211 -2.15702 0
      vertex 6.5 -4 0
      vertex -10.8918 -2.41842 0
    endloop
  endfacet
  facet normal 0 0 -1
    outer loop
      vertex -13.5265 -1.95386 0
      vertex -33.7956 0.662339 0
      vertex -13.6914 -1.61564 0
    endloop
  endfacet
  facet normal 0 0 -1
    outer loop
      vertex -13.5265 -1.95386 0
      vertex -34.1 0.441154 0
      vertex -33.7956 0.662339 0
    endloop
  endfacet
  facet normal 0 0 -1
    outer loop
      vertex -10.2044 -1.12556 0
      vertex 6.5 -4 0
      vertex -10.2697 -1.49615 0
    endloop
  endfacet
  facet normal 0 0 -1
    outer loop
      vertex 4.76119 -8.74264 0
      vertex -8.36881 -4.92604 0
      vertex 4.74806 -8.36657 0
    endloop
  endfacet
  facet normal 0 0 -1
    outer loop
      vertex -11.3257 0.668931 0
      vertex -16.9923 4.5505 0
      vertex -10.9935 0.492268 0
    endloop
  endfacet
  facet normal 0 0 -1
    outer loop
      vertex -12.7891 0.617829 0
      vertex -16.9923 4.5505 0
      vertex -12.4355 0.746533 0
    endloop
  endfacet
  facet normal 0 0 -1
    outer loop
      vertex -10.2044 -1.12556 0
      vertex -10.2175 -0.749489 0
      vertex 6.5 -4 0
    endloop
  endfacet
  facet normal 0 0 -1
    outer loop
      vertex -12.4355 0.746533 0
      vertex -16.9923 4.5505 0
      vertex -12.0628 0.798904 0
    endloop
  endfacet
  facet normal 0 0 -1
    outer loop
      vertex -10.2175 -0.749489 0
      vertex -10.3086 -0.384364 0
      vertex 6.5 -4 0
    endloop
  endfacet
  facet normal 0 0 -1
    outer loop
      vertex -12.0628 0.798904 0
      vertex -16.9923 4.5505 0
      vertex -11.6874 0.772654 0
    endloop
  endfacet
  facet normal 0 0 -1
    outer loop
      vertex -10.3086 -0.384364 0
      vertex -10.4735 -0.0461448 0
      vertex 6.5 -4 0
    endloop
  endfacet
  facet normal 0 0 -1
    outer loop
      vertex -11.6874 0.772654 0
      vertex -16.9923 4.5505 0
      vertex -11.3257 0.668931 0
    endloop
  endfacet
  facet normal 0 0 -1
    outer loop
      vertex -10.4735 -0.0461448 0
      vertex -10.7052 0.250385 0
      vertex 6.5 -4 0
    endloop
  endfacet
  facet normal 0 0 -1
    outer loop
      vertex -10.7052 0.250385 0
      vertex -10.9935 0.492268 0
      vertex 6.5 -4 0
    endloop
  endfacet
  facet normal 0 0 -1
    outer loop
      vertex -13.1082 0.418419 0
      vertex -16.9923 4.5505 0
      vertex -12.7891 0.617829 0
    endloop
  endfacet
  facet normal 0 0 -1
    outer loop
      vertex -13.3789 0.157018 0
      vertex -16.9923 4.5505 0
      vertex -13.1082 0.418419 0
    endloop
  endfacet
  facet normal 0 0 -1
    outer loop
      vertex -13.5893 -0.154952 0
      vertex -16.9923 4.5505 0
      vertex -13.3789 0.157018 0
    endloop
  endfacet
  facet normal 0 0 -1
    outer loop
      vertex -13.7303 -0.503853 0
      vertex -16.9923 4.5505 0
      vertex -13.5893 -0.154952 0
    endloop
  endfacet
  facet normal 0 0 -1
    outer loop
      vertex -13.7956 -0.874439 0
      vertex -16.9923 4.5505 0
      vertex -13.7303 -0.503853 0
    endloop
  endfacet
  facet normal 0 0 -1
    outer loop
      vertex 8.27395 -8.98828 0
      vertex 11.5 -10 0
      vertex 8.13298 -9.33718 0
    endloop
  endfacet
  facet normal 0 0 -1
    outer loop
      vertex 7.65187 -9.91055 0
      vertex 11.2839 -11.0168 0
      vertex 7.33275 -10.11 0
    endloop
  endfacet
  facet normal 0 0 -1
    outer loop
      vertex 6.97914 -10.2387 0
      vertex 11.0225 -11.4695 0
      vertex 6.6065 -10.291 0
    endloop
  endfacet
  facet normal 0 0 -1
    outer loop
      vertex 7.33275 -10.11 0
      vertex 11.2839 -11.0168 0
      vertex 6.97914 -10.2387 0
    endloop
  endfacet
  facet normal 0 0 -1
    outer loop
      vertex 8.13298 -9.33718 0
      vertex 11.4454 -10.5198 0
      vertex 7.92256 -9.64915 0
    endloop
  endfacet
  facet normal 0 0 -1
    outer loop
      vertex 7.92256 -9.64915 0
      vertex 11.4454 -10.5198 0
      vertex 7.65187 -9.91055 0
    endloop
  endfacet
  facet normal 0 0 -1
    outer loop
      vertex 8.33929 -8.61769 0
      vertex 11.4454 -9.48022 0
      vertex 8.27395 -8.98828 0
    endloop
  endfacet
  facet normal 0 0 -1
    outer loop
      vertex 8.32616 -8.24162 0
      vertex 11.2839 -8.98316 0
      vertex 8.33929 -8.61769 0
    endloop
  endfacet
  facet normal 0 0 -1
    outer loop
      vertex 8.23512 -7.8765 0
      vertex 11.0225 -8.53054 0
      vertex 8.32616 -8.24162 0
    endloop
  endfacet
  facet normal 0 0 -1
    outer loop
      vertex 4.95437 -7.64708 0
      vertex -22.683 -1.88347 0
      vertex 5.1648 -7.33511 0
    endloop
  endfacet
  facet normal 0 0 -1
    outer loop
      vertex 6.5 -4 0
      vertex 11.0225 -8.53054 0
      vertex 8.07016 -7.53828 0
    endloop
  endfacet
  facet normal 0 0 -1
    outer loop
      vertex 5.1648 -7.33511 0
      vertex -12.3126 -2.77265 0
      vertex -11.9372 -2.7989 0
    endloop
  endfacet
  facet normal 0 0 -1
    outer loop
      vertex 6.5 -4 0
      vertex 8.07016 -7.53828 0
      vertex 7.83849 -7.24175 0
    endloop
  endfacet
  facet normal 0 0 -1
    outer loop
      vertex 6.5 -4 0
      vertex 7.83849 -7.24175 0
      vertex 7.55022 -6.99986 0
    endloop
  endfacet
  facet normal 0 0 -1
    outer loop
      vertex 6.5 -4 0
      vertex 7.55022 -6.99986 0
      vertex 7.21797 -6.8232 0
    endloop
  endfacet
  facet normal 0 0 -1
    outer loop
      vertex 6.5 -4 0
      vertex 7.21797 -6.8232 0
      vertex 6.85624 -6.71948 0
    endloop
  endfacet
  facet normal 0 0 -1
    outer loop
      vertex 6.5 -4 0
      vertex 6.85624 -6.71948 0
      vertex -11.9372 -2.7989 0
    endloop
  endfacet
  facet normal 0 0 -1
    outer loop
      vertex 6.10822 -6.7456 0
      vertex -11.9372 -2.7989 0
      vertex 6.48086 -6.69323 0
    endloop
  endfacet
  facet normal 0 0 -1
    outer loop
      vertex 5.75461 -6.8743 0
      vertex -11.9372 -2.7989 0
      vertex 6.10822 -6.7456 0
    endloop
  endfacet
  facet normal 0 0 -1
    outer loop
      vertex 5.43549 -7.07371 0
      vertex -11.9372 -2.7989 0
      vertex 5.75461 -6.8743 0
    endloop
  endfacet
  facet normal 0 0 -1
    outer loop
      vertex 6.48086 -6.69323 0
      vertex -11.9372 -2.7989 0
      vertex 6.85624 -6.71948 0
    endloop
  endfacet
  facet normal 0 0 -1
    outer loop
      vertex 5.1648 -7.33511 0
      vertex -22.683 -1.88347 0
      vertex -12.3126 -2.77265 0
    endloop
  endfacet
  facet normal 0 0 -1
    outer loop
      vertex 8.07016 -7.53828 0
      vertex 11.0225 -8.53054 0
      vertex 8.23512 -7.8765 0
    endloop
  endfacet
  facet normal 0 0 -1
    outer loop
      vertex 4.95437 -7.64708 0
      vertex -8.36881 -4.92604 0
      vertex -22.683 -1.88347 0
    endloop
  endfacet
  facet normal 0 0 -1
    outer loop
      vertex 4.81341 -7.99598 0
      vertex -8.36881 -4.92604 0
      vertex 4.95437 -7.64708 0
    endloop
  endfacet
  facet normal 0 0 -1
    outer loop
      vertex 5 -10.8782 0
      vertex 9.77254 -12.3776 0
      vertex 9.26132 -12.4863 0
    endloop
  endfacet
  facet normal 0 0 -1
    outer loop
      vertex 5 -10.8782 0
      vertex 9.26132 -12.4863 0
      vertex 8.73868 -12.4863 0
    endloop
  endfacet
  facet normal 0 0 -1
    outer loop
      vertex 5 -10.8782 0
      vertex 8.73868 -12.4863 0
      vertex 8.22746 -12.3776 0
    endloop
  endfacet
  facet normal 0 0 -1
    outer loop
      vertex 5 -10.8782 0
      vertex 8.22746 -12.3776 0
      vertex 6.57495 -12.0225 0
    endloop
  endfacet
  facet normal 0 0 -1
    outer loop
      vertex 6.6065 -10.291 0
      vertex 11.0225 -11.4695 0
      vertex 6.23111 -10.2648 0
    endloop
  endfacet
  facet normal 0 0 -1
    outer loop
      vertex 8.13298 -9.33718 0
      vertex 11.5 -10 0
      vertex 11.4454 -10.5198 0
    endloop
  endfacet
  facet normal 0 0 -1
    outer loop
      vertex -8.36881 -4.92604 0
      vertex 4.76119 -8.74264 0
      vertex 4.85223 -9.10777 0
    endloop
  endfacet
  facet normal 0 0 -1
    outer loop
      vertex -8.36881 -4.92604 0
      vertex 4.85223 -9.10777 0
      vertex 5.01719 -9.44599 0
    endloop
  endfacet
  facet normal 0 0 -1
    outer loop
      vertex -8.36881 -4.92604 0
      vertex 5.01719 -9.44599 0
      vertex 5.24887 -9.74252 0
    endloop
  endfacet
  facet normal 0 0 -1
    outer loop
      vertex -8.36881 -4.92604 0
      vertex 5.24887 -9.74252 0
      vertex 5.53713 -9.9844 0
    endloop
  endfacet
  facet normal 0 0 -1
    outer loop
      vertex -8.36881 -4.92604 0
      vertex 5.53713 -9.9844 0
      vertex 5.86939 -10.1611 0
    endloop
  endfacet
  facet normal 0 0 -1
    outer loop
      vertex 6.23111 -10.2648 0
      vertex 11.0225 -11.4695 0
      vertex 10.6728 -11.8579 0
    endloop
  endfacet
  facet normal 0 0 -1
    outer loop
      vertex 5.86939 -10.1611 0
      vertex 6.23111 -10.2648 0
      vertex 10.6728 -11.8579 0
    endloop
  endfacet
  facet normal 0 0 -1
    outer loop
      vertex 5.86939 -10.1611 0
      vertex 10.6728 -11.8579 0
      vertex 10.25 -12.1651 0
    endloop
  endfacet
  facet normal 0 0 -1
    outer loop
      vertex -8.36881 -4.92604 0
      vertex 5.86939 -10.1611 0
      vertex 10.25 -12.1651 0
    endloop
  endfacet
  facet normal 0 0 -1
    outer loop
      vertex -8.36881 -4.92604 0
      vertex 10.25 -12.1651 0
      vertex 5 -10.8782 0
    endloop
  endfacet
  facet normal -0.994522 0.104529 0
    outer loop
      vertex -40 2 0
      vertex -40 2 3
      vertex -39.8907 3.03956 0
    endloop
  endfacet
  facet normal -0.994522 0.104529 0
    outer loop
      vertex -39.8907 3.03956 0
      vertex -40 2 3
      vertex -39.8907 3.03956 3
    endloop
  endfacet
  facet normal 0 0 1
    outer loop
      vertex -39.8907 3.03956 3
      vertex -40 2 3
      vertex -39.8907 0.960442 3
    endloop
  endfacet
  facet normal 0 0 1
    outer loop
      vertex -39.0451 -0.938926 3
      vertex -39.8907 3.03956 3
      vertex -39.5677 -0.033683 3
    endloop
  endfacet
  facet normal 0 0 1
    outer loop
      vertex -39.5677 -0.033683 3
      vertex -39.8907 3.03956 3
      vertex -39.8907 0.960442 3
    endloop
  endfacet
  facet normal 0 0 1
    outer loop
      vertex -38.3457 -1.71572 3
      vertex -39.8907 3.03956 3
      vertex -39.0451 -0.938926 3
    endloop
  endfacet
  facet normal 0 0 1
    outer loop
      vertex -37.9342 -2.01466 3
      vertex -39.8907 3.03956 3
      vertex -38.3457 -1.71572 3
    endloop
  endfacet
  facet normal 0 0 1
    outer loop
      vertex -37.317 -1.88347 3
      vertex -39.8907 3.03956 3
      vertex -37.9342 -2.01466 3
    endloop
  endfacet
  facet normal 0 0 1
    outer loop
      vertex -36.7607 1.62576 3
      vertex -39.8907 3.03956 3
      vertex -37.317 -1.88347 3
    endloop
  endfacet
  facet normal 0 0 1
    outer loop
      vertex 4.95437 -7.64708 3
      vertex 5.1648 -7.33511 3
      vertex -33.2393 1.62576 3
    endloop
  endfacet
  facet normal 0 0 1
    outer loop
      vertex 8.73868 -12.4863 3
      vertex -8.36881 -4.92604 3
      vertex 5 -10.8782 3
    endloop
  endfacet
  facet normal 0 0 1
    outer loop
      vertex 8.22746 -12.3776 3
      vertex 5 -10.8782 3
      vertex 6.57495 -12.0225 3
    endloop
  endfacet
  facet normal 0 0 1
    outer loop
      vertex 8.73868 -12.4863 3
      vertex 5 -10.8782 3
      vertex 8.22746 -12.3776 3
    endloop
  endfacet
  facet normal 0 0 1
    outer loop
      vertex 9.26132 -12.4863 3
      vertex -8.36881 -4.92604 3
      vertex 8.73868 -12.4863 3
    endloop
  endfacet
  facet normal 0 0 1
    outer loop
      vertex 9.77254 -12.3776 3
      vertex -8.36881 -4.92604 3
      vertex 9.26132 -12.4863 3
    endloop
  endfacet
  facet normal 0 0 1
    outer loop
      vertex 10.25 -12.1651 3
      vertex -8.36881 -4.92604 3
      vertex 9.77254 -12.3776 3
    endloop
  endfacet
  facet normal 0 0 1
    outer loop
      vertex 5.86939 -10.1611 3
      vertex -8.36881 -4.92604 3
      vertex 10.25 -12.1651 3
    endloop
  endfacet
  facet normal 0 0 1
    outer loop
      vertex 5.86939 -10.1611 3
      vertex 5.53713 -9.9844 3
      vertex -8.36881 -4.92604 3
    endloop
  endfacet
  facet normal 0 0 1
    outer loop
      vertex 6.6065 -10.291 3
      vertex 6.23111 -10.2648 3
      vertex 10.6728 -11.8579 3
    endloop
  endfacet
  facet normal 0 0 1
    outer loop
      vertex 7.92256 -9.64915 3
      vertex 7.65187 -9.91055 3
      vertex 11.2839 -11.0168 3
    endloop
  endfacet
  facet normal 0 0 1
    outer loop
      vertex -36.4562 3.05801 3
      vertex -36.2044 3.33766 3
      vertex -39.8907 3.03956 3
    endloop
  endfacet
  facet normal 0 0 1
    outer loop
      vertex -36.8 2 3
      vertex -36.7607 2.37424 3
      vertex -39.8907 3.03956 3
    endloop
  endfacet
  facet normal 0 0 1
    outer loop
      vertex 6.62816 -3.64789 3
      vertex 6.5 -4 3
      vertex 11.0225 -8.53054 3
    endloop
  endfacet
  facet normal 0 0 1
    outer loop
      vertex -12.6743 -2.66893 3
      vertex -33.2393 2.37424 3
      vertex -33.2 2 3
    endloop
  endfacet
  facet normal 0 0 1
    outer loop
      vertex -34.8118 3.79014 3
      vertex -34.4438 3.7119 3
      vertex -16.9353 4.70715 3
    endloop
  endfacet
  facet normal 0 0 1
    outer loop
      vertex -35.5226 6.97261 3
      vertex -39.8907 3.03956 3
      vertex -34.4774 6.97261 3
    endloop
  endfacet
  facet normal 0 0 1
    outer loop
      vertex -36.5451 6.75528 3
      vertex -39.8907 3.03956 3
      vertex -35.5226 6.97261 3
    endloop
  endfacet
  facet normal 0 0 1
    outer loop
      vertex -37.5 6.33013 3
      vertex -39.8907 3.03956 3
      vertex -36.5451 6.75528 3
    endloop
  endfacet
  facet normal 0 0 1
    outer loop
      vertex -38.3457 5.71572 3
      vertex -39.8907 3.03956 3
      vertex -37.5 6.33013 3
    endloop
  endfacet
  facet normal 0 0 1
    outer loop
      vertex -39.0451 4.93893 3
      vertex -39.8907 3.03956 3
      vertex -38.3457 5.71572 3
    endloop
  endfacet
  facet normal 0 0 1
    outer loop
      vertex -39.5677 4.03368 3
      vertex -39.8907 3.03956 3
      vertex -39.0451 4.93893 3
    endloop
  endfacet
  facet normal 0 0 1
    outer loop
      vertex -36.6444 1.26787 3
      vertex -36.7607 1.62576 3
      vertex -37.317 -1.88347 3
    endloop
  endfacet
  facet normal 0 0 1
    outer loop
      vertex -36.8 2 3
      vertex -39.8907 3.03956 3
      vertex -36.7607 1.62576 3
    endloop
  endfacet
  facet normal 0 0 1
    outer loop
      vertex -12.6743 -2.66893 3
      vertex -33.2 2 3
      vertex -33.2393 1.62576 3
    endloop
  endfacet
  facet normal 0 0 1
    outer loop
      vertex -36.4562 3.05801 3
      vertex -39.8907 3.03956 3
      vertex -36.6444 2.73213 3
    endloop
  endfacet
  facet normal 0 0 1
    outer loop
      vertex 8.32616 -8.24162 3
      vertex 8.33929 -8.61769 3
      vertex 11.4454 -9.48022 3
    endloop
  endfacet
  facet normal 0 0 1
    outer loop
      vertex -34.4774 6.97261 3
      vertex -39.8907 3.03956 3
      vertex -36.2044 3.33766 3
    endloop
  endfacet
  facet normal 0 0 1
    outer loop
      vertex -34.1 3.55885 3
      vertex -16.9923 4.5505 3
      vertex -16.9353 4.70715 3
    endloop
  endfacet
  facet normal 0 0 1
    outer loop
      vertex -34.4774 6.97261 3
      vertex -36.2044 3.33766 3
      vertex -35.9 3.55885 3
    endloop
  endfacet
  facet normal 0 0 1
    outer loop
      vertex -34.4438 3.7119 3
      vertex -34.1 3.55885 3
      vertex -16.9353 4.70715 3
    endloop
  endfacet
  facet normal 0 0 1
    outer loop
      vertex -34.4774 6.97261 3
      vertex -35.9 3.55885 3
      vertex -35.5562 3.7119 3
    endloop
  endfacet
  facet normal 0 0 1
    outer loop
      vertex -34.4774 6.97261 3
      vertex -35.1882 3.79014 3
      vertex -16.9353 4.70715 3
    endloop
  endfacet
  facet normal 0 0 1
    outer loop
      vertex -34.4774 6.97261 3
      vertex -35.5562 3.7119 3
      vertex -35.1882 3.79014 3
    endloop
  endfacet
  facet normal 0 0 1
    outer loop
      vertex -35.1882 3.79014 3
      vertex -34.8118 3.79014 3
      vertex -16.9353 4.70715 3
    endloop
  endfacet
  facet normal 0 0 1
    outer loop
      vertex -33.5438 3.05801 3
      vertex -33.3556 2.73213 3
      vertex -16.9923 4.5505 3
    endloop
  endfacet
  facet normal 0 0 1
    outer loop
      vertex -34.1 3.55885 3
      vertex -33.7956 3.33766 3
      vertex -16.9923 4.5505 3
    endloop
  endfacet
  facet normal 0 0 1
    outer loop
      vertex -33.3556 1.26787 3
      vertex -33.5438 0.941987 3
      vertex -22.683 -1.88347 3
    endloop
  endfacet
  facet normal 0 0 1
    outer loop
      vertex -8.36881 -4.92604 3
      vertex -33.3556 1.26787 3
      vertex -22.683 -1.88347 3
    endloop
  endfacet
  facet normal 0 0 1
    outer loop
      vertex -33.2393 1.62576 3
      vertex -33.3556 1.26787 3
      vertex -8.36881 -4.92604 3
    endloop
  endfacet
  facet normal 0 0 1
    outer loop
      vertex -34.1 0.441154 3
      vertex -34.4438 0.288098 3
      vertex -37.317 -1.88347 3
    endloop
  endfacet
  facet normal 0 0 1
    outer loop
      vertex -22.683 -1.88347 3
      vertex -34.1 0.441154 3
      vertex -37.317 -1.88347 3
    endloop
  endfacet
  facet normal 0 0 1
    outer loop
      vertex -22.683 -1.88347 3
      vertex -33.7956 0.662339 3
      vertex -34.1 0.441154 3
    endloop
  endfacet
  facet normal 0 0 1
    outer loop
      vertex -34.4438 0.288098 3
      vertex -34.8118 0.209861 3
      vertex -37.317 -1.88347 3
    endloop
  endfacet
  facet normal 0 0 1
    outer loop
      vertex -34.8118 0.209861 3
      vertex -35.1882 0.209861 3
      vertex -37.317 -1.88347 3
    endloop
  endfacet
  facet normal 0 0 1
    outer loop
      vertex -35.1882 0.209861 3
      vertex -35.5562 0.288098 3
      vertex -37.317 -1.88347 3
    endloop
  endfacet
  facet normal 0 0 1
    outer loop
      vertex -35.5562 0.288098 3
      vertex -35.9 0.441154 3
      vertex -37.317 -1.88347 3
    endloop
  endfacet
  facet normal 0 0 1
    outer loop
      vertex -35.9 0.441154 3
      vertex -36.2044 0.662339 3
      vertex -37.317 -1.88347 3
    endloop
  endfacet
  facet normal 0 0 1
    outer loop
      vertex -36.2044 0.662339 3
      vertex -36.4562 0.941987 3
      vertex -37.317 -1.88347 3
    endloop
  endfacet
  facet normal 0 0 1
    outer loop
      vertex -36.4562 0.941987 3
      vertex -36.6444 1.26787 3
      vertex -37.317 -1.88347 3
    endloop
  endfacet
  facet normal 0 0 1
    outer loop
      vertex 7.55022 -6.99986 3
      vertex 7.83849 -7.24175 3
      vertex 11.0225 -8.53054 3
    endloop
  endfacet
  facet normal 0 0 1
    outer loop
      vertex -12.6743 -2.66893 3
      vertex -33.2393 1.62576 3
      vertex -12.3126 -2.77265 3
    endloop
  endfacet
  facet normal 0 0 1
    outer loop
      vertex -10.2697 -1.49615 3
      vertex -10.4107 -1.84505 3
      vertex 6.5 -4 3
    endloop
  endfacet
  facet normal 0 0 1
    outer loop
      vertex -16.9923 4.5505 3
      vertex -33.3556 2.73213 3
      vertex -11.3257 0.668931 3
    endloop
  endfacet
  facet normal 0 0 1
    outer loop
      vertex -10.2044 -1.12556 3
      vertex -10.2697 -1.49615 3
      vertex 6.5 -4 3
    endloop
  endfacet
  facet normal 0 0 1
    outer loop
      vertex -11.2109 -2.61783 3
      vertex -11.5645 -2.74653 3
      vertex 6.5 -4 3
    endloop
  endfacet
  facet normal 0 0 1
    outer loop
      vertex 4.85223 -9.10777 3
      vertex 4.76119 -8.74264 3
      vertex -8.36881 -4.92604 3
    endloop
  endfacet
  facet normal 0 0 1
    outer loop
      vertex 4.81341 -7.99598 3
      vertex 4.95437 -7.64708 3
      vertex -33.2393 1.62576 3
    endloop
  endfacet
  facet normal 0 0 1
    outer loop
      vertex 5.1648 -7.33511 3
      vertex -11.9372 -2.7989 3
      vertex -12.3126 -2.77265 3
    endloop
  endfacet
  facet normal 0 0 1
    outer loop
      vertex -33.5438 0.941987 3
      vertex -33.7956 0.662339 3
      vertex -22.683 -1.88347 3
    endloop
  endfacet
  facet normal 0 0 1
    outer loop
      vertex 6.5 -4 3
      vertex -10.4107 -1.84505 3
      vertex -10.6211 -2.15702 3
    endloop
  endfacet
  facet normal 0 0 1
    outer loop
      vertex 6.5 -4 3
      vertex -10.6211 -2.15702 3
      vertex -10.8918 -2.41842 3
    endloop
  endfacet
  facet normal 0 0 1
    outer loop
      vertex -11.5645 -2.74653 3
      vertex -11.9372 -2.7989 3
      vertex 6.5 -4 3
    endloop
  endfacet
  facet normal 0 0 1
    outer loop
      vertex 6.5 -4 3
      vertex -10.8918 -2.41842 3
      vertex -11.2109 -2.61783 3
    endloop
  endfacet
  facet normal 0 0 1
    outer loop
      vertex 4.74806 -8.36657 3
      vertex 4.81341 -7.99598 3
      vertex -8.36881 -4.92604 3
    endloop
  endfacet
  facet normal 0 0 1
    outer loop
      vertex 7.33275 -10.11 3
      vertex 6.97914 -10.2387 3
      vertex 11.0225 -11.4695 3
    endloop
  endfacet
  facet normal 0 0 1
    outer loop
      vertex 8.13298 -9.33718 3
      vertex 7.92256 -9.64915 3
      vertex 11.4454 -10.5198 3
    endloop
  endfacet
  facet normal 0 0 1
    outer loop
      vertex 5.1648 -7.33511 3
      vertex -12.3126 -2.77265 3
      vertex -33.2393 1.62576 3
    endloop
  endfacet
  facet normal 0 0 1
    outer loop
      vertex 8.33929 -8.61769 3
      vertex 8.27395 -8.98828 3
      vertex 11.4454 -9.48022 3
    endloop
  endfacet
  facet normal 0 0 1
    outer loop
      vertex 8.32616 -8.24162 3
      vertex 11.4454 -9.48022 3
      vertex 11.2839 -8.98316 3
    endloop
  endfacet
  facet normal 0 0 1
    outer loop
      vertex 8.23512 -7.8765 3
      vertex 11.2839 -8.98316 3
      vertex 11.0225 -8.53054 3
    endloop
  endfacet
  facet normal 0 0 1
    outer loop
      vertex 6.5 -4 3
      vertex -11.9372 -2.7989 3
      vertex 5.43549 -7.07371 3
    endloop
  endfacet
  facet normal 0 0 1
    outer loop
      vertex 8.23512 -7.8765 3
      vertex 8.32616 -8.24162 3
      vertex 11.2839 -8.98316 3
    endloop
  endfacet
  facet normal 0 0 1
    outer loop
      vertex 6.5 -4 3
      vertex 5.43549 -7.07371 3
      vertex 5.75461 -6.8743 3
    endloop
  endfacet
  facet normal 0 0 1
    outer loop
      vertex 6.5 -4 3
      vertex 5.75461 -6.8743 3
      vertex 6.10822 -6.7456 3
    endloop
  endfacet
  facet normal 0 0 1
    outer loop
      vertex 8.07016 -7.53828 3
      vertex 8.23512 -7.8765 3
      vertex 11.0225 -8.53054 3
    endloop
  endfacet
  facet normal 0 0 1
    outer loop
      vertex 6.5 -4 3
      vertex 6.10822 -6.7456 3
      vertex 6.48086 -6.69323 3
    endloop
  endfacet
  facet normal 0 0 1
    outer loop
      vertex 6.5 -4 3
      vertex 6.48086 -6.69323 3
      vertex 6.85624 -6.71948 3
    endloop
  endfacet
  facet normal 0 0 1
    outer loop
      vertex 6.5 -4 3
      vertex 7.21797 -6.8232 3
      vertex 11.0225 -8.53054 3
    endloop
  endfacet
  facet normal 0 0 1
    outer loop
      vertex 6.5 -4 3
      vertex 6.85624 -6.71948 3
      vertex 7.21797 -6.8232 3
    endloop
  endfacet
  facet normal 0 0 1
    outer loop
      vertex 7.21797 -6.8232 3
      vertex 7.55022 -6.99986 3
      vertex 11.0225 -8.53054 3
    endloop
  endfacet
  facet normal 0 0 1
    outer loop
      vertex 7.83849 -7.24175 3
      vertex 8.07016 -7.53828 3
      vertex 11.0225 -8.53054 3
    endloop
  endfacet
  facet normal 0 0 1
    outer loop
      vertex -36.7607 2.37424 3
      vertex -36.6444 2.73213 3
      vertex -39.8907 3.03956 3
    endloop
  endfacet
  facet normal 0 0 1
    outer loop
      vertex 8.27395 -8.98828 3
      vertex 8.13298 -9.33718 3
      vertex 11.5 -10 3
    endloop
  endfacet
  facet normal 0 0 1
    outer loop
      vertex 11.4454 -9.48022 3
      vertex 8.27395 -8.98828 3
      vertex 11.5 -10 3
    endloop
  endfacet
  facet normal 0 0 1
    outer loop
      vertex 11.5 -10 3
      vertex 8.13298 -9.33718 3
      vertex 11.4454 -10.5198 3
    endloop
  endfacet
  facet normal 0 0 1
    outer loop
      vertex 11.4454 -10.5198 3
      vertex 7.92256 -9.64915 3
      vertex 11.2839 -11.0168 3
    endloop
  endfacet
  facet normal 0 0 1
    outer loop
      vertex 11.2839 -11.0168 3
      vertex 7.65187 -9.91055 3
      vertex 11.0225 -11.4695 3
    endloop
  endfacet
  facet normal 0 0 1
    outer loop
      vertex 4.76119 -8.74264 3
      vertex 4.74806 -8.36657 3
      vertex -8.36881 -4.92604 3
    endloop
  endfacet
  facet normal 0 0 1
    outer loop
      vertex 7.65187 -9.91055 3
      vertex 7.33275 -10.11 3
      vertex 11.0225 -11.4695 3
    endloop
  endfacet
  facet normal 0 0 1
    outer loop
      vertex 11.0225 -11.4695 3
      vertex 6.97914 -10.2387 3
      vertex 10.6728 -11.8579 3
    endloop
  endfacet
  facet normal 0 0 1
    outer loop
      vertex 6.97914 -10.2387 3
      vertex 6.6065 -10.291 3
      vertex 10.6728 -11.8579 3
    endloop
  endfacet
  facet normal 0 0 1
    outer loop
      vertex 10.6728 -11.8579 3
      vertex 6.23111 -10.2648 3
      vertex 10.25 -12.1651 3
    endloop
  endfacet
  facet normal 0 0 1
    outer loop
      vertex 6.23111 -10.2648 3
      vertex 5.86939 -10.1611 3
      vertex 10.25 -12.1651 3
    endloop
  endfacet
  facet normal 0 0 1
    outer loop
      vertex 5.53713 -9.9844 3
      vertex 5.24887 -9.74252 3
      vertex -8.36881 -4.92604 3
    endloop
  endfacet
  facet normal 0 0 1
    outer loop
      vertex 5.24887 -9.74252 3
      vertex 5.01719 -9.44599 3
      vertex -8.36881 -4.92604 3
    endloop
  endfacet
  facet normal 0 0 1
    outer loop
      vertex 5.01719 -9.44599 3
      vertex 4.85223 -9.10777 3
      vertex -8.36881 -4.92604 3
    endloop
  endfacet
  facet normal 0 0 1
    outer loop
      vertex 4.81341 -7.99598 3
      vertex -33.2393 1.62576 3
      vertex -8.36881 -4.92604 3
    endloop
  endfacet
  facet normal 0 0 1
    outer loop
      vertex -33.7956 3.33766 3
      vertex -33.5438 3.05801 3
      vertex -16.9923 4.5505 3
    endloop
  endfacet
  facet normal 0 0 1
    outer loop
      vertex 5.1648 -7.33511 3
      vertex 5.43549 -7.07371 3
      vertex -11.9372 -2.7989 3
    endloop
  endfacet
  facet normal 0 0 1
    outer loop
      vertex 6.5 -4 3
      vertex -10.2175 -0.749489 3
      vertex -10.2044 -1.12556 3
    endloop
  endfacet
  facet normal 0 0 1
    outer loop
      vertex 6.5 -4 3
      vertex -10.3086 -0.384364 3
      vertex -10.2175 -0.749489 3
    endloop
  endfacet
  facet normal 0 0 1
    outer loop
      vertex 6.5 -4 3
      vertex -10.4735 -0.0461448 3
      vertex -10.3086 -0.384364 3
    endloop
  endfacet
  facet normal 0 0 1
    outer loop
      vertex 6.5 -4 3
      vertex -10.7052 0.250385 3
      vertex -10.4735 -0.0461448 3
    endloop
  endfacet
  facet normal 0 0 1
    outer loop
      vertex 6.5 -4 3
      vertex -10.9935 0.492268 3
      vertex -10.7052 0.250385 3
    endloop
  endfacet
  facet normal 0 0 1
    outer loop
      vertex 6.5 -4 3
      vertex -11.3257 0.668931 3
      vertex -10.9935 0.492268 3
    endloop
  endfacet
  facet normal 0 0 1
    outer loop
      vertex 6.5 -4 3
      vertex -16.9923 4.5505 3
      vertex -11.3257 0.668931 3
    endloop
  endfacet
  facet normal 0 0 1
    outer loop
      vertex -12.6743 -2.66893 3
      vertex -33.3556 2.73213 3
      vertex -33.2393 2.37424 3
    endloop
  endfacet
  facet normal 0 0 1
    outer loop
      vertex -12.6743 -2.66893 3
      vertex -11.3257 0.668931 3
      vertex -33.3556 2.73213 3
    endloop
  endfacet
  facet normal -0.951056 -0.309017 0
    outer loop
      vertex -39.8907 0.960442 0
      vertex -39.5677 -0.033683 0
      vertex -39.8907 0.960442 3
    endloop
  endfacet
  facet normal -0.951056 -0.309017 0
    outer loop
      vertex -39.8907 0.960442 3
      vertex -39.5677 -0.033683 0
      vertex -39.5677 -0.033683 3
    endloop
  endfacet
  facet normal -0.866026 -0.5 0
    outer loop
      vertex -39.5677 -0.033683 0
      vertex -39.0451 -0.938926 0
      vertex -39.5677 -0.033683 3
    endloop
  endfacet
  facet normal -0.866026 -0.5 0
    outer loop
      vertex -39.5677 -0.033683 3
      vertex -39.0451 -0.938926 0
      vertex -39.0451 -0.938926 3
    endloop
  endfacet
  facet normal -0.743145 -0.669131 0
    outer loop
      vertex -39.0451 -0.938926 0
      vertex -38.3457 -1.71572 0
      vertex -39.0451 -0.938926 3
    endloop
  endfacet
  facet normal -0.743145 -0.669131 0
    outer loop
      vertex -39.0451 -0.938926 3
      vertex -38.3457 -1.71572 0
      vertex -38.3457 -1.71572 3
    endloop
  endfacet
  facet normal -0.587785 -0.809017 0
    outer loop
      vertex -38.3457 -1.71572 3
      vertex -38.3457 -1.71572 0
      vertex -37.9342 -2.01466 0
    endloop
  endfacet
  facet normal -0.587785 -0.809017 0
    outer loop
      vertex -37.9342 -2.01466 3
      vertex -38.3457 -1.71572 3
      vertex -37.9342 -2.01466 0
    endloop
  endfacet
  facet normal 0.207912 -0.978148 0
    outer loop
      vertex -37.317 -1.88347 0
      vertex -37.317 -1.88347 3
      vertex -37.9342 -2.01466 3
    endloop
  endfacet
  facet normal 0.207912 -0.978148 0
    outer loop
      vertex -37.9342 -2.01466 0
      vertex -37.317 -1.88347 0
      vertex -37.9342 -2.01466 3
    endloop
  endfacet
  facet normal 0 -1 0
    outer loop
      vertex -22.683 -1.88347 0
      vertex -22.683 -1.88347 3
      vertex -37.317 -1.88347 3
    endloop
  endfacet
  facet normal 0 -1 0
    outer loop
      vertex -37.317 -1.88347 0
      vertex -22.683 -1.88347 0
      vertex -37.317 -1.88347 3
    endloop
  endfacet
  facet normal -0.207912 -0.978148 0
    outer loop
      vertex -8.36881 -4.92604 0
      vertex -8.36881 -4.92604 3
      vertex -22.683 -1.88347 3
    endloop
  endfacet
  facet normal -0.207912 -0.978148 0
    outer loop
      vertex -22.683 -1.88347 0
      vertex -8.36881 -4.92604 0
      vertex -22.683 -1.88347 3
    endloop
  endfacet
  facet normal -0.406737 -0.913545 0
    outer loop
      vertex 5 -10.8782 0
      vertex 5 -10.8782 3
      vertex -8.36881 -4.92604 3
    endloop
  endfacet
  facet normal -0.406737 -0.913545 0
    outer loop
      vertex -8.36881 -4.92604 0
      vertex 5 -10.8782 0
      vertex -8.36881 -4.92604 3
    endloop
  endfacet
  facet normal -0.587785 -0.809017 0
    outer loop
      vertex 6.57495 -12.0225 0
      vertex 6.57495 -12.0225 3
      vertex 5 -10.8782 3
    endloop
  endfacet
  facet normal -0.587785 -0.809017 0
    outer loop
      vertex 5 -10.8782 0
      vertex 6.57495 -12.0225 0
      vertex 5 -10.8782 3
    endloop
  endfacet
  facet normal -0.210119 -0.977676 0
    outer loop
      vertex 6.57495 -12.0225 3
      vertex 6.57495 -12.0225 0
      vertex 8.22746 -12.3776 0
    endloop
  endfacet
  facet normal -0.210119 -0.977676 0
    outer loop
      vertex 8.22746 -12.3776 3
      vertex 6.57495 -12.0225 3
      vertex 8.22746 -12.3776 0
    endloop
  endfacet
  facet normal -0.207913 -0.978147 0
    outer loop
      vertex 8.22746 -12.3776 3
      vertex 8.22746 -12.3776 0
      vertex 8.73868 -12.4863 0
    endloop
  endfacet
  facet normal -0.207913 -0.978147 0
    outer loop
      vertex 8.73868 -12.4863 3
      vertex 8.22746 -12.3776 3
      vertex 8.73868 -12.4863 0
    endloop
  endfacet
  facet normal 0 -1 0
    outer loop
      vertex 8.73868 -12.4863 3
      vertex 8.73868 -12.4863 0
      vertex 9.26132 -12.4863 0
    endloop
  endfacet
  facet normal 0 -1 0
    outer loop
      vertex 9.26132 -12.4863 3
      vertex 8.73868 -12.4863 3
      vertex 9.26132 -12.4863 0
    endloop
  endfacet
  facet normal 0.207913 -0.978147 0
    outer loop
      vertex 9.26132 -12.4863 3
      vertex 9.26132 -12.4863 0
      vertex 9.77254 -12.3776 0
    endloop
  endfacet
  facet normal 0.207913 -0.978147 0
    outer loop
      vertex 9.77254 -12.3776 3
      vertex 9.26132 -12.4863 3
      vertex 9.77254 -12.3776 0
    endloop
  endfacet
  facet normal 0.406735 -0.913546 0
    outer loop
      vertex 9.77254 -12.3776 3
      vertex 9.77254 -12.3776 0
      vertex 10.25 -12.1651 0
    endloop
  endfacet
  facet normal 0.406735 -0.913546 0
    outer loop
      vertex 10.25 -12.1651 3
      vertex 9.77254 -12.3776 3
      vertex 10.25 -12.1651 0
    endloop
  endfacet
  facet normal 0.587786 -0.809017 0
    outer loop
      vertex 10.25 -12.1651 3
      vertex 10.25 -12.1651 0
      vertex 10.6728 -11.8579 0
    endloop
  endfacet
  facet normal 0.587786 -0.809017 0
    outer loop
      vertex 10.6728 -11.8579 3
      vertex 10.25 -12.1651 3
      vertex 10.6728 -11.8579 0
    endloop
  endfacet
  facet normal 0.743146 -0.66913 0
    outer loop
      vertex 10.6728 -11.8579 3
      vertex 10.6728 -11.8579 0
      vertex 11.0225 -11.4695 0
    endloop
  endfacet
  facet normal 0.743146 -0.66913 0
    outer loop
      vertex 11.0225 -11.4695 3
      vertex 10.6728 -11.8579 3
      vertex 11.0225 -11.4695 0
    endloop
  endfacet
  facet normal 0.866024 -0.500002 0
    outer loop
      vertex 11.0225 -11.4695 3
      vertex 11.0225 -11.4695 0
      vertex 11.2839 -11.0168 0
    endloop
  endfacet
  facet normal 0.866024 -0.500002 0
    outer loop
      vertex 11.2839 -11.0168 3
      vertex 11.0225 -11.4695 3
      vertex 11.2839 -11.0168 0
    endloop
  endfacet
  facet normal 0.951057 -0.309016 0
    outer loop
      vertex 11.2839 -11.0168 3
      vertex 11.2839 -11.0168 0
      vertex 11.4454 -10.5198 0
    endloop
  endfacet
  facet normal 0.951057 -0.309016 0
    outer loop
      vertex 11.4454 -10.5198 3
      vertex 11.2839 -11.0168 3
      vertex 11.4454 -10.5198 0
    endloop
  endfacet
  facet normal 0.994522 -0.104529 0
    outer loop
      vertex 11.4454 -10.5198 3
      vertex 11.4454 -10.5198 0
      vertex 11.5 -10 0
    endloop
  endfacet
  facet normal 0.994522 -0.104529 0
    outer loop
      vertex 11.5 -10 3
      vertex 11.4454 -10.5198 3
      vertex 11.5 -10 0
    endloop
  endfacet
  facet normal 0.994522 0.104529 0
    outer loop
      vertex 11.5 -10 0
      vertex 11.4454 -9.48022 0
      vertex 11.4454 -9.48022 3
    endloop
  endfacet
  facet normal 0.994522 0.104529 0
    outer loop
      vertex 11.5 -10 3
      vertex 11.5 -10 0
      vertex 11.4454 -9.48022 3
    endloop
  endfacet
  facet normal 0.951057 0.309016 0
    outer loop
      vertex 11.4454 -9.48022 0
      vertex 11.2839 -8.98316 0
      vertex 11.2839 -8.98316 3
    endloop
  endfacet
  facet normal 0.951057 0.309016 0
    outer loop
      vertex 11.4454 -9.48022 3
      vertex 11.4454 -9.48022 0
      vertex 11.2839 -8.98316 3
    endloop
  endfacet
  facet normal 0.866024 0.500002 0
    outer loop
      vertex 11.2839 -8.98316 0
      vertex 11.0225 -8.53054 0
      vertex 11.0225 -8.53054 3
    endloop
  endfacet
  facet normal 0.866024 0.500002 0
    outer loop
      vertex 11.2839 -8.98316 3
      vertex 11.2839 -8.98316 0
      vertex 11.0225 -8.53054 3
    endloop
  endfacet
  facet normal 0.743294 0.668965 0
    outer loop
      vertex 11.0225 -8.53054 0
      vertex 6.62816 -3.64789 0
      vertex 6.62816 -3.64789 3
    endloop
  endfacet
  facet normal 0.743294 0.668965 0
    outer loop
      vertex 11.0225 -8.53054 3
      vertex 11.0225 -8.53054 0
      vertex 6.62816 -3.64789 3
    endloop
  endfacet
  facet normal -0.939693 0.34202 0
    outer loop
      vertex 6.62816 -3.64789 3
      vertex 6.62816 -3.64789 0
      vertex 6.5 -4 3
    endloop
  endfacet
  facet normal -0.939693 0.34202 0
    outer loop
      vertex 6.5 -4 3
      vertex 6.62816 -3.64789 0
      vertex 6.5 -4 0
    endloop
  endfacet
  facet normal 0.34202 0.939693 0
    outer loop
      vertex 6.5 -4 3
      vertex 6.5 -4 0
      vertex -16.9923 4.5505 3
    endloop
  endfacet
  facet normal 0.34202 0.939693 0
    outer loop
      vertex -16.9923 4.5505 3
      vertex 6.5 -4 0
      vertex -16.9923 4.5505 0
    endloop
  endfacet
  facet normal 0.939693 -0.34202 0
    outer loop
      vertex -16.9353 4.70715 0
      vertex -16.9353 4.70715 3
      vertex -16.9923 4.5505 3
    endloop
  endfacet
  facet normal 0.939693 -0.34202 0
    outer loop
      vertex -16.9923 4.5505 0
      vertex -16.9353 4.70715 0
      vertex -16.9923 4.5505 3
    endloop
  endfacet
  facet normal 0.128081 0.991764 0
    outer loop
      vertex -34.4774 6.97261 0
      vertex -34.4774 6.97261 3
      vertex -16.9353 4.70715 0
    endloop
  endfacet
  facet normal 0.128081 0.991764 0
    outer loop
      vertex -16.9353 4.70715 0
      vertex -34.4774 6.97261 3
      vertex -16.9353 4.70715 3
    endloop
  endfacet
  facet normal 0 1 0
    outer loop
      vertex -35.5226 6.97261 0
      vertex -35.5226 6.97261 3
      vertex -34.4774 6.97261 0
    endloop
  endfacet
  facet normal 0 1 0
    outer loop
      vertex -34.4774 6.97261 0
      vertex -35.5226 6.97261 3
      vertex -34.4774 6.97261 3
    endloop
  endfacet
  facet normal -0.207911 0.978148 0
    outer loop
      vertex -36.5451 6.75528 0
      vertex -36.5451 6.75528 3
      vertex -35.5226 6.97261 0
    endloop
  endfacet
  facet normal -0.207911 0.978148 0
    outer loop
      vertex -35.5226 6.97261 0
      vertex -36.5451 6.75528 3
      vertex -35.5226 6.97261 3
    endloop
  endfacet
  facet normal -0.406737 0.913545 0
    outer loop
      vertex -37.5 6.33013 0
      vertex -37.5 6.33013 3
      vertex -36.5451 6.75528 0
    endloop
  endfacet
  facet normal -0.406737 0.913545 0
    outer loop
      vertex -36.5451 6.75528 0
      vertex -37.5 6.33013 3
      vertex -36.5451 6.75528 3
    endloop
  endfacet
  facet normal -0.587785 0.809017 0
    outer loop
      vertex -38.3457 5.71572 0
      vertex -38.3457 5.71572 3
      vertex -37.5 6.33013 0
    endloop
  endfacet
  facet normal -0.587785 0.809017 0
    outer loop
      vertex -37.5 6.33013 0
      vertex -38.3457 5.71572 3
      vertex -37.5 6.33013 3
    endloop
  endfacet
  facet normal -0.743145 0.669131 0
    outer loop
      vertex -39.0451 4.93893 0
      vertex -39.0451 4.93893 3
      vertex -38.3457 5.71572 0
    endloop
  endfacet
  facet normal -0.743145 0.669131 0
    outer loop
      vertex -38.3457 5.71572 0
      vertex -39.0451 4.93893 3
      vertex -38.3457 5.71572 3
    endloop
  endfacet
  facet normal -0.866026 0.5 0
    outer loop
      vertex -39.5677 4.03368 0
      vertex -39.5677 4.03368 3
      vertex -39.0451 4.93893 0
    endloop
  endfacet
  facet normal -0.866026 0.5 0
    outer loop
      vertex -39.0451 4.93893 0
      vertex -39.5677 4.03368 3
      vertex -39.0451 4.93893 3
    endloop
  endfacet
  facet normal -0.951056 0.309017 0
    outer loop
      vertex -39.8907 3.03956 0
      vertex -39.8907 3.03956 3
      vertex -39.5677 4.03368 0
    endloop
  endfacet
  facet normal -0.951056 0.309017 0
    outer loop
      vertex -39.5677 4.03368 0
      vertex -39.8907 3.03956 3
      vertex -39.5677 4.03368 3
    endloop
  endfacet
  facet normal 0.994522 -0.104528 0
    outer loop
      vertex -36.7607 2.37424 0
      vertex -36.7607 2.37424 3
      vertex -36.8 2 3
    endloop
  endfacet
  facet normal 0.994522 -0.104528 0
    outer loop
      vertex -36.8 2 0
      vertex -36.7607 2.37424 0
      vertex -36.8 2 3
    endloop
  endfacet
  facet normal 0.994522 0.104528 0
    outer loop
      vertex -36.8 2 3
      vertex -36.7607 1.62576 3
      vertex -36.7607 1.62576 0
    endloop
  endfacet
  facet normal 0.994522 0.104528 0
    outer loop
      vertex -36.8 2 0
      vertex -36.8 2 3
      vertex -36.7607 1.62576 0
    endloop
  endfacet
  facet normal 0.951056 -0.309017 0
    outer loop
      vertex -36.6444 2.73213 0
      vertex -36.6444 2.73213 3
      vertex -36.7607 2.37424 3
    endloop
  endfacet
  facet normal 0.951056 -0.309017 0
    outer loop
      vertex -36.7607 2.37424 0
      vertex -36.6444 2.73213 0
      vertex -36.7607 2.37424 3
    endloop
  endfacet
  facet normal 0.866025 -0.5 0
    outer loop
      vertex -36.4562 3.05801 0
      vertex -36.4562 3.05801 3
      vertex -36.6444 2.73213 3
    endloop
  endfacet
  facet normal 0.866025 -0.5 0
    outer loop
      vertex -36.6444 2.73213 0
      vertex -36.4562 3.05801 0
      vertex -36.6444 2.73213 3
    endloop
  endfacet
  facet normal 0.743145 -0.66913 0
    outer loop
      vertex -36.2044 3.33766 0
      vertex -36.2044 3.33766 3
      vertex -36.4562 3.05801 3
    endloop
  endfacet
  facet normal 0.743145 -0.66913 0
    outer loop
      vertex -36.4562 3.05801 0
      vertex -36.2044 3.33766 0
      vertex -36.4562 3.05801 3
    endloop
  endfacet
  facet normal 0.587785 -0.809017 0
    outer loop
      vertex -35.9 3.55885 0
      vertex -35.9 3.55885 3
      vertex -36.2044 3.33766 3
    endloop
  endfacet
  facet normal 0.587785 -0.809017 0
    outer loop
      vertex -36.2044 3.33766 0
      vertex -35.9 3.55885 0
      vertex -36.2044 3.33766 3
    endloop
  endfacet
  facet normal 0.406737 -0.913545 0
    outer loop
      vertex -35.5562 3.7119 0
      vertex -35.5562 3.7119 3
      vertex -35.9 3.55885 3
    endloop
  endfacet
  facet normal 0.406737 -0.913545 0
    outer loop
      vertex -35.9 3.55885 0
      vertex -35.5562 3.7119 0
      vertex -35.9 3.55885 3
    endloop
  endfacet
  facet normal 0.20791 -0.978148 0
    outer loop
      vertex -35.1882 3.79014 0
      vertex -35.1882 3.79014 3
      vertex -35.5562 3.7119 3
    endloop
  endfacet
  facet normal 0.20791 -0.978148 0
    outer loop
      vertex -35.5562 3.7119 0
      vertex -35.1882 3.79014 0
      vertex -35.5562 3.7119 3
    endloop
  endfacet
  facet normal 0 -1 0
    outer loop
      vertex -34.8118 3.79014 0
      vertex -34.8118 3.79014 3
      vertex -35.1882 3.79014 3
    endloop
  endfacet
  facet normal 0 -1 0
    outer loop
      vertex -35.1882 3.79014 0
      vertex -34.8118 3.79014 0
      vertex -35.1882 3.79014 3
    endloop
  endfacet
  facet normal -0.20791 -0.978148 0
    outer loop
      vertex -34.4438 3.7119 0
      vertex -34.4438 3.7119 3
      vertex -34.8118 3.79014 3
    endloop
  endfacet
  facet normal -0.20791 -0.978148 0
    outer loop
      vertex -34.8118 3.79014 0
      vertex -34.4438 3.7119 0
      vertex -34.8118 3.79014 3
    endloop
  endfacet
  facet normal -0.406737 -0.913545 0
    outer loop
      vertex -34.1 3.55885 0
      vertex -34.1 3.55885 3
      vertex -34.4438 3.7119 3
    endloop
  endfacet
  facet normal -0.406737 -0.913545 0
    outer loop
      vertex -34.4438 3.7119 0
      vertex -34.1 3.55885 0
      vertex -34.4438 3.7119 3
    endloop
  endfacet
  facet normal -0.587785 -0.809017 0
    outer loop
      vertex -33.7956 3.33766 0
      vertex -33.7956 3.33766 3
      vertex -34.1 3.55885 3
    endloop
  endfacet
  facet normal -0.587785 -0.809017 0
    outer loop
      vertex -34.1 3.55885 0
      vertex -33.7956 3.33766 0
      vertex -34.1 3.55885 3
    endloop
  endfacet
  facet normal -0.743145 -0.66913 0
    outer loop
      vertex -33.5438 3.05801 3
      vertex -33.7956 3.33766 3
      vertex -33.5438 3.05801 0
    endloop
  endfacet
  facet normal -0.743145 -0.66913 0
    outer loop
      vertex -33.5438 3.05801 0
      vertex -33.7956 3.33766 3
      vertex -33.7956 3.33766 0
    endloop
  endfacet
  facet normal -0.866025 -0.5 0
    outer loop
      vertex -33.3556 2.73213 3
      vertex -33.5438 3.05801 3
      vertex -33.3556 2.73213 0
    endloop
  endfacet
  facet normal -0.866025 -0.5 0
    outer loop
      vertex -33.3556 2.73213 0
      vertex -33.5438 3.05801 3
      vertex -33.5438 3.05801 0
    endloop
  endfacet
  facet normal -0.951056 -0.309017 0
    outer loop
      vertex -33.2393 2.37424 3
      vertex -33.3556 2.73213 3
      vertex -33.2393 2.37424 0
    endloop
  endfacet
  facet normal -0.951056 -0.309017 0
    outer loop
      vertex -33.2393 2.37424 0
      vertex -33.3556 2.73213 3
      vertex -33.3556 2.73213 0
    endloop
  endfacet
  facet normal -0.994522 -0.104528 0
    outer loop
      vertex -33.2 2 3
      vertex -33.2393 2.37424 3
      vertex -33.2 2 0
    endloop
  endfacet
  facet normal -0.994522 -0.104528 0
    outer loop
      vertex -33.2 2 0
      vertex -33.2393 2.37424 3
      vertex -33.2393 2.37424 0
    endloop
  endfacet
  facet normal -0.994522 0.104528 0
    outer loop
      vertex -33.2 2 3
      vertex -33.2 2 0
      vertex -33.2393 1.62576 3
    endloop
  endfacet
  facet normal -0.994522 0.104528 0
    outer loop
      vertex -33.2393 1.62576 3
      vertex -33.2 2 0
      vertex -33.2393 1.62576 0
    endloop
  endfacet
  facet normal -0.951056 0.309017 0
    outer loop
      vertex -33.2393 1.62576 3
      vertex -33.2393 1.62576 0
      vertex -33.3556 1.26787 3
    endloop
  endfacet
  facet normal -0.951056 0.309017 0
    outer loop
      vertex -33.3556 1.26787 3
      vertex -33.2393 1.62576 0
      vertex -33.3556 1.26787 0
    endloop
  endfacet
  facet normal -0.866025 0.5 0
    outer loop
      vertex -33.3556 1.26787 3
      vertex -33.3556 1.26787 0
      vertex -33.5438 0.941987 3
    endloop
  endfacet
  facet normal -0.866025 0.5 0
    outer loop
      vertex -33.5438 0.941987 3
      vertex -33.3556 1.26787 0
      vertex -33.5438 0.941987 0
    endloop
  endfacet
  facet normal -0.743145 0.66913 0
    outer loop
      vertex -33.5438 0.941987 3
      vertex -33.5438 0.941987 0
      vertex -33.7956 0.662339 3
    endloop
  endfacet
  facet normal -0.743145 0.66913 0
    outer loop
      vertex -33.7956 0.662339 3
      vertex -33.5438 0.941987 0
      vertex -33.7956 0.662339 0
    endloop
  endfacet
  facet normal -0.587785 0.809017 0
    outer loop
      vertex -33.7956 0.662339 3
      vertex -33.7956 0.662339 0
      vertex -34.1 0.441154 3
    endloop
  endfacet
  facet normal -0.587785 0.809017 0
    outer loop
      vertex -34.1 0.441154 3
      vertex -33.7956 0.662339 0
      vertex -34.1 0.441154 0
    endloop
  endfacet
  facet normal -0.406737 0.913545 0
    outer loop
      vertex -34.1 0.441154 3
      vertex -34.1 0.441154 0
      vertex -34.4438 0.288098 3
    endloop
  endfacet
  facet normal -0.406737 0.913545 0
    outer loop
      vertex -34.4438 0.288098 3
      vertex -34.1 0.441154 0
      vertex -34.4438 0.288098 0
    endloop
  endfacet
  facet normal -0.20791 0.978148 0
    outer loop
      vertex -34.4438 0.288098 3
      vertex -34.4438 0.288098 0
      vertex -34.8118 0.209861 3
    endloop
  endfacet
  facet normal -0.20791 0.978148 0
    outer loop
      vertex -34.8118 0.209861 3
      vertex -34.4438 0.288098 0
      vertex -34.8118 0.209861 0
    endloop
  endfacet
  facet normal 0 1 0
    outer loop
      vertex -34.8118 0.209861 3
      vertex -34.8118 0.209861 0
      vertex -35.1882 0.209861 3
    endloop
  endfacet
  facet normal 0 1 0
    outer loop
      vertex -35.1882 0.209861 3
      vertex -34.8118 0.209861 0
      vertex -35.1882 0.209861 0
    endloop
  endfacet
  facet normal 0.20791 0.978148 0
    outer loop
      vertex -35.1882 0.209861 3
      vertex -35.1882 0.209861 0
      vertex -35.5562 0.288098 3
    endloop
  endfacet
  facet normal 0.20791 0.978148 0
    outer loop
      vertex -35.5562 0.288098 3
      vertex -35.1882 0.209861 0
      vertex -35.5562 0.288098 0
    endloop
  endfacet
  facet normal 0.406737 0.913545 0
    outer loop
      vertex -35.5562 0.288098 3
      vertex -35.5562 0.288098 0
      vertex -35.9 0.441154 3
    endloop
  endfacet
  facet normal 0.406737 0.913545 0
    outer loop
      vertex -35.9 0.441154 3
      vertex -35.5562 0.288098 0
      vertex -35.9 0.441154 0
    endloop
  endfacet
  facet normal 0.587785 0.809017 0
    outer loop
      vertex -35.9 0.441154 3
      vertex -35.9 0.441154 0
      vertex -36.2044 0.662339 3
    endloop
  endfacet
  facet normal 0.587785 0.809017 0
    outer loop
      vertex -36.2044 0.662339 3
      vertex -35.9 0.441154 0
      vertex -36.2044 0.662339 0
    endloop
  endfacet
  facet normal 0.743145 0.66913 0
    outer loop
      vertex -36.4562 0.941987 3
      vertex -36.2044 0.662339 3
      vertex -36.2044 0.662339 0
    endloop
  endfacet
  facet normal 0.743145 0.66913 0
    outer loop
      vertex -36.4562 0.941987 0
      vertex -36.4562 0.941987 3
      vertex -36.2044 0.662339 0
    endloop
  endfacet
  facet normal 0.866025 0.5 0
    outer loop
      vertex -36.6444 1.26787 3
      vertex -36.4562 0.941987 3
      vertex -36.4562 0.941987 0
    endloop
  endfacet
  facet normal 0.866025 0.5 0
    outer loop
      vertex -36.6444 1.26787 0
      vertex -36.6444 1.26787 3
      vertex -36.4562 0.941987 0
    endloop
  endfacet
  facet normal 0.951056 0.309017 0
    outer loop
      vertex -36.7607 1.62576 3
      vertex -36.6444 1.26787 3
      vertex -36.6444 1.26787 0
    endloop
  endfacet
  facet normal 0.951056 0.309017 0
    outer loop
      vertex -36.7607 1.62576 0
      vertex -36.7607 1.62576 3
      vertex -36.6444 1.26787 0
    endloop
  endfacet
  facet normal 0.999391 0.0348999 3.06053e-16
    outer loop
      vertex -13.7825 -1.25051 3
      vertex -13.7825 -1.25051 0
      vertex -13.7956 -0.874439 0
    endloop
  endfacet
  facet normal 0.999391 0.0348999 3.06053e-16
    outer loop
      vertex -13.7956 -0.874439 3
      vertex -13.7825 -1.25051 3
      vertex -13.7956 -0.874439 0
    endloop
  endfacet
  facet normal 0.984807 -0.17365 3.65086e-16
    outer loop
      vertex -13.7956 -0.874439 0
      vertex -13.7303 -0.503853 0
      vertex -13.7303 -0.503853 3
    endloop
  endfacet
  facet normal 0.984807 -0.17365 3.65086e-16
    outer loop
      vertex -13.7956 -0.874439 3
      vertex -13.7956 -0.874439 0
      vertex -13.7303 -0.503853 3
    endloop
  endfacet
  facet normal 0.927184 -0.374607 4.08162e-16
    outer loop
      vertex -13.7303 -0.503853 0
      vertex -13.5893 -0.154952 0
      vertex -13.5893 -0.154952 3
    endloop
  endfacet
  facet normal 0.927184 -0.374607 4.08162e-16
    outer loop
      vertex -13.7303 -0.503853 3
      vertex -13.7303 -0.503853 0
      vertex -13.5893 -0.154952 3
    endloop
  endfacet
  facet normal 0.829039 -0.559191 4.334e-16
    outer loop
      vertex -13.5893 -0.154952 0
      vertex -13.3789 0.157018 0
      vertex -13.3789 0.157018 3
    endloop
  endfacet
  facet normal 0.829039 -0.559191 4.334e-16
    outer loop
      vertex -13.5893 -0.154952 3
      vertex -13.5893 -0.154952 0
      vertex -13.3789 0.157018 3
    endloop
  endfacet
  facet normal 0.694658 -0.71934 4.39696e-16
    outer loop
      vertex -13.3789 0.157018 0
      vertex -13.1082 0.418419 0
      vertex -13.1082 0.418419 3
    endloop
  endfacet
  facet normal 0.694658 -0.71934 4.39696e-16
    outer loop
      vertex -13.3789 0.157018 3
      vertex -13.3789 0.157018 0
      vertex -13.1082 0.418419 3
    endloop
  endfacet
  facet normal 0.529919 -0.848048 4.26775e-16
    outer loop
      vertex -13.1082 0.418419 0
      vertex -12.7891 0.617829 0
      vertex -12.7891 0.617829 3
    endloop
  endfacet
  facet normal 0.529919 -0.848048 4.26775e-16
    outer loop
      vertex -13.1082 0.418419 3
      vertex -13.1082 0.418419 0
      vertex -12.7891 0.617829 3
    endloop
  endfacet
  facet normal 0.34202 -0.939693 3.95202e-16
    outer loop
      vertex -12.7891 0.617829 0
      vertex -12.4355 0.746533 0
      vertex -12.4355 0.746533 3
    endloop
  endfacet
  facet normal 0.34202 -0.939693 3.95202e-16
    outer loop
      vertex -12.7891 0.617829 3
      vertex -12.7891 0.617829 0
      vertex -12.4355 0.746533 3
    endloop
  endfacet
  facet normal 0.139173 -0.990268 3.46357e-16
    outer loop
      vertex -12.4355 0.746533 0
      vertex -12.0628 0.798904 0
      vertex -12.0628 0.798904 3
    endloop
  endfacet
  facet normal 0.139173 -0.990268 3.46357e-16
    outer loop
      vertex -12.4355 0.746533 3
      vertex -12.4355 0.746533 0
      vertex -12.0628 0.798904 3
    endloop
  endfacet
  facet normal -0.0697562 -0.997564 2.82375e-16
    outer loop
      vertex -12.0628 0.798904 0
      vertex -11.6874 0.772654 0
      vertex -11.6874 0.772654 3
    endloop
  endfacet
  facet normal -0.0697562 -0.997564 2.82375e-16
    outer loop
      vertex -12.0628 0.798904 3
      vertex -12.0628 0.798904 0
      vertex -11.6874 0.772654 3
    endloop
  endfacet
  facet normal -0.275638 -0.961261 2.06051e-16
    outer loop
      vertex -11.6874 0.772654 0
      vertex -11.3257 0.668931 0
      vertex -11.3257 0.668931 3
    endloop
  endfacet
  facet normal -0.275638 -0.961261 2.06051e-16
    outer loop
      vertex -11.6874 0.772654 3
      vertex -11.6874 0.772654 0
      vertex -11.3257 0.668931 3
    endloop
  endfacet
  facet normal -0.469471 -0.882948 1.20722e-16
    outer loop
      vertex -11.3257 0.668931 0
      vertex -10.9935 0.492268 0
      vertex -10.9935 0.492268 3
    endloop
  endfacet
  facet normal -0.469471 -0.882948 1.20722e-16
    outer loop
      vertex -11.3257 0.668931 3
      vertex -11.3257 0.668931 0
      vertex -10.9935 0.492268 3
    endloop
  endfacet
  facet normal -0.642788 -0.766044 3.01166e-17
    outer loop
      vertex -10.9935 0.492268 0
      vertex -10.7052 0.250385 0
      vertex -10.7052 0.250385 3
    endloop
  endfacet
  facet normal -0.642788 -0.766044 3.01166e-17
    outer loop
      vertex -10.9935 0.492268 3
      vertex -10.9935 0.492268 0
      vertex -10.7052 0.250385 3
    endloop
  endfacet
  facet normal -0.788011 -0.615661 -6.18048e-17
    outer loop
      vertex -10.4735 -0.0461448 0
      vertex -10.4735 -0.0461448 3
      vertex -10.7052 0.250385 0
    endloop
  endfacet
  facet normal -0.788011 -0.615661 -6.18048e-17
    outer loop
      vertex -10.7052 0.250385 0
      vertex -10.4735 -0.0461448 3
      vertex -10.7052 0.250385 3
    endloop
  endfacet
  facet normal -0.898794 -0.438371 -1.51025e-16
    outer loop
      vertex -10.3086 -0.384364 0
      vertex -10.3086 -0.384364 3
      vertex -10.4735 -0.0461448 0
    endloop
  endfacet
  facet normal -0.898794 -0.438371 -1.51025e-16
    outer loop
      vertex -10.4735 -0.0461448 0
      vertex -10.3086 -0.384364 3
      vertex -10.4735 -0.0461448 3
    endloop
  endfacet
  facet normal -0.970296 -0.241922 -2.33645e-16
    outer loop
      vertex -10.2175 -0.749489 0
      vertex -10.2175 -0.749489 3
      vertex -10.3086 -0.384364 0
    endloop
  endfacet
  facet normal -0.970296 -0.241922 -2.33645e-16
    outer loop
      vertex -10.3086 -0.384364 0
      vertex -10.2175 -0.749489 3
      vertex -10.3086 -0.384364 3
    endloop
  endfacet
  facet normal -0.999391 -0.0348999 -3.06053e-16
    outer loop
      vertex -10.2044 -1.12556 0
      vertex -10.2044 -1.12556 3
      vertex -10.2175 -0.749489 0
    endloop
  endfacet
  facet normal -0.999391 -0.0348999 -3.06053e-16
    outer loop
      vertex -10.2175 -0.749489 0
      vertex -10.2044 -1.12556 3
      vertex -10.2175 -0.749489 3
    endloop
  endfacet
  facet normal -0.984807 0.17365 -3.65086e-16
    outer loop
      vertex -10.2044 -1.12556 0
      vertex -10.2697 -1.49615 0
      vertex -10.2044 -1.12556 3
    endloop
  endfacet
  facet normal -0.984807 0.17365 -3.65086e-16
    outer loop
      vertex -10.2044 -1.12556 3
      vertex -10.2697 -1.49615 0
      vertex -10.2697 -1.49615 3
    endloop
  endfacet
  facet normal -0.927184 0.374607 -4.08162e-16
    outer loop
      vertex -10.2697 -1.49615 0
      vertex -10.4107 -1.84505 0
      vertex -10.2697 -1.49615 3
    endloop
  endfacet
  facet normal -0.927184 0.374607 -4.08162e-16
    outer loop
      vertex -10.2697 -1.49615 3
      vertex -10.4107 -1.84505 0
      vertex -10.4107 -1.84505 3
    endloop
  endfacet
  facet normal -0.829039 0.559191 -4.334e-16
    outer loop
      vertex -10.4107 -1.84505 0
      vertex -10.6211 -2.15702 0
      vertex -10.4107 -1.84505 3
    endloop
  endfacet
  facet normal -0.829039 0.559191 -4.334e-16
    outer loop
      vertex -10.4107 -1.84505 3
      vertex -10.6211 -2.15702 0
      vertex -10.6211 -2.15702 3
    endloop
  endfacet
  facet normal -0.694658 0.71934 -4.39696e-16
    outer loop
      vertex -10.6211 -2.15702 0
      vertex -10.8918 -2.41842 0
      vertex -10.6211 -2.15702 3
    endloop
  endfacet
  facet normal -0.694658 0.71934 -4.39696e-16
    outer loop
      vertex -10.6211 -2.15702 3
      vertex -10.8918 -2.41842 0
      vertex -10.8918 -2.41842 3
    endloop
  endfacet
  facet normal -0.529919 0.848048 -4.26775e-16
    outer loop
      vertex -10.8918 -2.41842 0
      vertex -11.2109 -2.61783 0
      vertex -10.8918 -2.41842 3
    endloop
  endfacet
  facet normal -0.529919 0.848048 -4.26775e-16
    outer loop
      vertex -10.8918 -2.41842 3
      vertex -11.2109 -2.61783 0
      vertex -11.2109 -2.61783 3
    endloop
  endfacet
  facet normal -0.34202 0.939693 -3.95202e-16
    outer loop
      vertex -11.2109 -2.61783 0
      vertex -11.5645 -2.74653 0
      vertex -11.2109 -2.61783 3
    endloop
  endfacet
  facet normal -0.34202 0.939693 -3.95202e-16
    outer loop
      vertex -11.2109 -2.61783 3
      vertex -11.5645 -2.74653 0
      vertex -11.5645 -2.74653 3
    endloop
  endfacet
  facet normal -0.139173 0.990268 -3.46357e-16
    outer loop
      vertex -11.5645 -2.74653 0
      vertex -11.9372 -2.7989 0
      vertex -11.5645 -2.74653 3
    endloop
  endfacet
  facet normal -0.139173 0.990268 -3.46357e-16
    outer loop
      vertex -11.5645 -2.74653 3
      vertex -11.9372 -2.7989 0
      vertex -11.9372 -2.7989 3
    endloop
  endfacet
  facet normal 0.0697562 0.997564 -2.82375e-16
    outer loop
      vertex -11.9372 -2.7989 0
      vertex -12.3126 -2.77265 0
      vertex -11.9372 -2.7989 3
    endloop
  endfacet
  facet normal 0.0697562 0.997564 -2.82375e-16
    outer loop
      vertex -11.9372 -2.7989 3
      vertex -12.3126 -2.77265 0
      vertex -12.3126 -2.77265 3
    endloop
  endfacet
  facet normal 0.275638 0.961261 -2.06051e-16
    outer loop
      vertex -12.3126 -2.77265 0
      vertex -12.6743 -2.66893 0
      vertex -12.3126 -2.77265 3
    endloop
  endfacet
  facet normal 0.275638 0.961261 -2.06051e-16
    outer loop
      vertex -12.3126 -2.77265 3
      vertex -12.6743 -2.66893 0
      vertex -12.6743 -2.66893 3
    endloop
  endfacet
  facet normal 0.469471 0.882948 -1.20722e-16
    outer loop
      vertex -12.6743 -2.66893 0
      vertex -13.0065 -2.49227 0
      vertex -12.6743 -2.66893 3
    endloop
  endfacet
  facet normal 0.469471 0.882948 -1.20722e-16
    outer loop
      vertex -12.6743 -2.66893 3
      vertex -13.0065 -2.49227 0
      vertex -13.0065 -2.49227 3
    endloop
  endfacet
  facet normal 0.642788 0.766044 -3.01166e-17
    outer loop
      vertex -13.0065 -2.49227 0
      vertex -13.2948 -2.25039 0
      vertex -13.0065 -2.49227 3
    endloop
  endfacet
  facet normal 0.642788 0.766044 -3.01166e-17
    outer loop
      vertex -13.0065 -2.49227 3
      vertex -13.2948 -2.25039 0
      vertex -13.2948 -2.25039 3
    endloop
  endfacet
  facet normal 0.788011 0.615661 6.18048e-17
    outer loop
      vertex -13.2948 -2.25039 3
      vertex -13.2948 -2.25039 0
      vertex -13.5265 -1.95386 0
    endloop
  endfacet
  facet normal 0.788011 0.615661 6.18048e-17
    outer loop
      vertex -13.5265 -1.95386 3
      vertex -13.2948 -2.25039 3
      vertex -13.5265 -1.95386 0
    endloop
  endfacet
  facet normal 0.898794 0.438371 1.51025e-16
    outer loop
      vertex -13.5265 -1.95386 3
      vertex -13.5265 -1.95386 0
      vertex -13.6914 -1.61564 0
    endloop
  endfacet
  facet normal 0.898794 0.438371 1.51025e-16
    outer loop
      vertex -13.6914 -1.61564 3
      vertex -13.5265 -1.95386 3
      vertex -13.6914 -1.61564 0
    endloop
  endfacet
  facet normal 0.970296 0.241922 2.33645e-16
    outer loop
      vertex -13.6914 -1.61564 3
      vertex -13.6914 -1.61564 0
      vertex -13.7825 -1.25051 0
    endloop
  endfacet
  facet normal 0.970296 0.241922 2.33645e-16
    outer loop
      vertex -13.7825 -1.25051 3
      vertex -13.6914 -1.61564 3
      vertex -13.7825 -1.25051 0
    endloop
  endfacet
  facet normal 0.999391 0.0348999 3.06053e-16
    outer loop
      vertex 4.76119 -8.74264 3
      vertex 4.76119 -8.74264 0
      vertex 4.74806 -8.36657 0
    endloop
  endfacet
  facet normal 0.999391 0.0348999 3.06053e-16
    outer loop
      vertex 4.74806 -8.36657 3
      vertex 4.76119 -8.74264 3
      vertex 4.74806 -8.36657 0
    endloop
  endfacet
  facet normal 0.984807 -0.17365 3.65086e-16
    outer loop
      vertex 4.74806 -8.36657 0
      vertex 4.81341 -7.99598 0
      vertex 4.81341 -7.99598 3
    endloop
  endfacet
  facet normal 0.984807 -0.17365 3.65086e-16
    outer loop
      vertex 4.74806 -8.36657 3
      vertex 4.74806 -8.36657 0
      vertex 4.81341 -7.99598 3
    endloop
  endfacet
  facet normal 0.927184 -0.374607 4.08162e-16
    outer loop
      vertex 4.81341 -7.99598 0
      vertex 4.95437 -7.64708 0
      vertex 4.95437 -7.64708 3
    endloop
  endfacet
  facet normal 0.927184 -0.374607 4.08162e-16
    outer loop
      vertex 4.81341 -7.99598 3
      vertex 4.81341 -7.99598 0
      vertex 4.95437 -7.64708 3
    endloop
  endfacet
  facet normal 0.829039 -0.559191 4.334e-16
    outer loop
      vertex 4.95437 -7.64708 0
      vertex 5.1648 -7.33511 0
      vertex 5.1648 -7.33511 3
    endloop
  endfacet
  facet normal 0.829039 -0.559191 4.334e-16
    outer loop
      vertex 4.95437 -7.64708 3
      vertex 4.95437 -7.64708 0
      vertex 5.1648 -7.33511 3
    endloop
  endfacet
  facet normal 0.694658 -0.71934 4.39696e-16
    outer loop
      vertex 5.1648 -7.33511 0
      vertex 5.43549 -7.07371 0
      vertex 5.43549 -7.07371 3
    endloop
  endfacet
  facet normal 0.694658 -0.71934 4.39696e-16
    outer loop
      vertex 5.1648 -7.33511 3
      vertex 5.1648 -7.33511 0
      vertex 5.43549 -7.07371 3
    endloop
  endfacet
  facet normal 0.529919 -0.848048 4.26775e-16
    outer loop
      vertex 5.43549 -7.07371 0
      vertex 5.75461 -6.8743 0
      vertex 5.75461 -6.8743 3
    endloop
  endfacet
  facet normal 0.529919 -0.848048 4.26775e-16
    outer loop
      vertex 5.43549 -7.07371 3
      vertex 5.43549 -7.07371 0
      vertex 5.75461 -6.8743 3
    endloop
  endfacet
  facet normal 0.34202 -0.939693 3.95202e-16
    outer loop
      vertex 5.75461 -6.8743 0
      vertex 6.10822 -6.7456 0
      vertex 6.10822 -6.7456 3
    endloop
  endfacet
  facet normal 0.34202 -0.939693 3.95202e-16
    outer loop
      vertex 5.75461 -6.8743 3
      vertex 5.75461 -6.8743 0
      vertex 6.10822 -6.7456 3
    endloop
  endfacet
  facet normal 0.139173 -0.990268 3.46357e-16
    outer loop
      vertex 6.10822 -6.7456 0
      vertex 6.48086 -6.69323 0
      vertex 6.48086 -6.69323 3
    endloop
  endfacet
  facet normal 0.139173 -0.990268 3.46357e-16
    outer loop
      vertex 6.10822 -6.7456 3
      vertex 6.10822 -6.7456 0
      vertex 6.48086 -6.69323 3
    endloop
  endfacet
  facet normal -0.0697562 -0.997564 2.82375e-16
    outer loop
      vertex 6.48086 -6.69323 0
      vertex 6.85624 -6.71948 0
      vertex 6.85624 -6.71948 3
    endloop
  endfacet
  facet normal -0.0697562 -0.997564 2.82375e-16
    outer loop
      vertex 6.48086 -6.69323 3
      vertex 6.48086 -6.69323 0
      vertex 6.85624 -6.71948 3
    endloop
  endfacet
  facet normal -0.275638 -0.961261 2.06051e-16
    outer loop
      vertex 6.85624 -6.71948 0
      vertex 7.21797 -6.8232 0
      vertex 7.21797 -6.8232 3
    endloop
  endfacet
  facet normal -0.275638 -0.961261 2.06051e-16
    outer loop
      vertex 6.85624 -6.71948 3
      vertex 6.85624 -6.71948 0
      vertex 7.21797 -6.8232 3
    endloop
  endfacet
  facet normal -0.469471 -0.882948 1.20722e-16
    outer loop
      vertex 7.21797 -6.8232 0
      vertex 7.55022 -6.99986 0
      vertex 7.55022 -6.99986 3
    endloop
  endfacet
  facet normal -0.469471 -0.882948 1.20722e-16
    outer loop
      vertex 7.21797 -6.8232 3
      vertex 7.21797 -6.8232 0
      vertex 7.55022 -6.99986 3
    endloop
  endfacet
  facet normal -0.642788 -0.766044 3.01166e-17
    outer loop
      vertex 7.55022 -6.99986 0
      vertex 7.83849 -7.24175 0
      vertex 7.83849 -7.24175 3
    endloop
  endfacet
  facet normal -0.642788 -0.766044 3.01166e-17
    outer loop
      vertex 7.55022 -6.99986 3
      vertex 7.55022 -6.99986 0
      vertex 7.83849 -7.24175 3
    endloop
  endfacet
  facet normal -0.788011 -0.615661 -6.18048e-17
    outer loop
      vertex 8.07016 -7.53828 0
      vertex 8.07016 -7.53828 3
      vertex 7.83849 -7.24175 0
    endloop
  endfacet
  facet normal -0.788011 -0.615661 -6.18048e-17
    outer loop
      vertex 7.83849 -7.24175 0
      vertex 8.07016 -7.53828 3
      vertex 7.83849 -7.24175 3
    endloop
  endfacet
  facet normal -0.898794 -0.438371 -1.51025e-16
    outer loop
      vertex 8.23512 -7.8765 0
      vertex 8.23512 -7.8765 3
      vertex 8.07016 -7.53828 0
    endloop
  endfacet
  facet normal -0.898794 -0.438371 -1.51025e-16
    outer loop
      vertex 8.07016 -7.53828 0
      vertex 8.23512 -7.8765 3
      vertex 8.07016 -7.53828 3
    endloop
  endfacet
  facet normal -0.970296 -0.241922 -2.33645e-16
    outer loop
      vertex 8.32616 -8.24162 0
      vertex 8.32616 -8.24162 3
      vertex 8.23512 -7.8765 0
    endloop
  endfacet
  facet normal -0.970296 -0.241922 -2.33645e-16
    outer loop
      vertex 8.23512 -7.8765 0
      vertex 8.32616 -8.24162 3
      vertex 8.23512 -7.8765 3
    endloop
  endfacet
  facet normal -0.999391 -0.0348999 -3.06053e-16
    outer loop
      vertex 8.33929 -8.61769 0
      vertex 8.33929 -8.61769 3
      vertex 8.32616 -8.24162 0
    endloop
  endfacet
  facet normal -0.999391 -0.0348999 -3.06053e-16
    outer loop
      vertex 8.32616 -8.24162 0
      vertex 8.33929 -8.61769 3
      vertex 8.32616 -8.24162 3
    endloop
  endfacet
  facet normal -0.984807 0.17365 -3.65086e-16
    outer loop
      vertex 8.33929 -8.61769 0
      vertex 8.27395 -8.98828 0
      vertex 8.33929 -8.61769 3
    endloop
  endfacet
  facet normal -0.984807 0.17365 -3.65086e-16
    outer loop
      vertex 8.33929 -8.61769 3
      vertex 8.27395 -8.98828 0
      vertex 8.27395 -8.98828 3
    endloop
  endfacet
  facet normal -0.927184 0.374607 -4.08162e-16
    outer loop
      vertex 8.27395 -8.98828 0
      vertex 8.13298 -9.33718 0
      vertex 8.27395 -8.98828 3
    endloop
  endfacet
  facet normal -0.927184 0.374607 -4.08162e-16
    outer loop
      vertex 8.27395 -8.98828 3
      vertex 8.13298 -9.33718 0
      vertex 8.13298 -9.33718 3
    endloop
  endfacet
  facet normal -0.829039 0.559191 -4.334e-16
    outer loop
      vertex 8.13298 -9.33718 0
      vertex 7.92256 -9.64915 0
      vertex 8.13298 -9.33718 3
    endloop
  endfacet
  facet normal -0.829039 0.559191 -4.334e-16
    outer loop
      vertex 8.13298 -9.33718 3
      vertex 7.92256 -9.64915 0
      vertex 7.92256 -9.64915 3
    endloop
  endfacet
  facet normal -0.694658 0.71934 -4.39696e-16
    outer loop
      vertex 7.92256 -9.64915 0
      vertex 7.65187 -9.91055 0
      vertex 7.92256 -9.64915 3
    endloop
  endfacet
  facet normal -0.694658 0.71934 -4.39696e-16
    outer loop
      vertex 7.92256 -9.64915 3
      vertex 7.65187 -9.91055 0
      vertex 7.65187 -9.91055 3
    endloop
  endfacet
  facet normal -0.529919 0.848048 -4.26775e-16
    outer loop
      vertex 7.65187 -9.91055 0
      vertex 7.33275 -10.11 0
      vertex 7.65187 -9.91055 3
    endloop
  endfacet
  facet normal -0.529919 0.848048 -4.26775e-16
    outer loop
      vertex 7.65187 -9.91055 3
      vertex 7.33275 -10.11 0
      vertex 7.33275 -10.11 3
    endloop
  endfacet
  facet normal -0.34202 0.939693 -3.95202e-16
    outer loop
      vertex 7.33275 -10.11 0
      vertex 6.97914 -10.2387 0
      vertex 7.33275 -10.11 3
    endloop
  endfacet
  facet normal -0.34202 0.939693 -3.95202e-16
    outer loop
      vertex 7.33275 -10.11 3
      vertex 6.97914 -10.2387 0
      vertex 6.97914 -10.2387 3
    endloop
  endfacet
  facet normal -0.139173 0.990268 -3.46357e-16
    outer loop
      vertex 6.97914 -10.2387 0
      vertex 6.6065 -10.291 0
      vertex 6.97914 -10.2387 3
    endloop
  endfacet
  facet normal -0.139173 0.990268 -3.46357e-16
    outer loop
      vertex 6.97914 -10.2387 3
      vertex 6.6065 -10.291 0
      vertex 6.6065 -10.291 3
    endloop
  endfacet
  facet normal 0.0697562 0.997564 -2.82375e-16
    outer loop
      vertex 6.6065 -10.291 0
      vertex 6.23111 -10.2648 0
      vertex 6.6065 -10.291 3
    endloop
  endfacet
  facet normal 0.0697562 0.997564 -2.82375e-16
    outer loop
      vertex 6.6065 -10.291 3
      vertex 6.23111 -10.2648 0
      vertex 6.23111 -10.2648 3
    endloop
  endfacet
  facet normal 0.275638 0.961261 -2.06051e-16
    outer loop
      vertex 6.23111 -10.2648 0
      vertex 5.86939 -10.1611 0
      vertex 6.23111 -10.2648 3
    endloop
  endfacet
  facet normal 0.275638 0.961261 -2.06051e-16
    outer loop
      vertex 6.23111 -10.2648 3
      vertex 5.86939 -10.1611 0
      vertex 5.86939 -10.1611 3
    endloop
  endfacet
  facet normal 0.469471 0.882948 -1.20722e-16
    outer loop
      vertex 5.86939 -10.1611 0
      vertex 5.53713 -9.9844 0
      vertex 5.86939 -10.1611 3
    endloop
  endfacet
  facet normal 0.469471 0.882948 -1.20722e-16
    outer loop
      vertex 5.86939 -10.1611 3
      vertex 5.53713 -9.9844 0
      vertex 5.53713 -9.9844 3
    endloop
  endfacet
  facet normal 0.642788 0.766044 -3.01166e-17
    outer loop
      vertex 5.53713 -9.9844 0
      vertex 5.24887 -9.74252 0
      vertex 5.53713 -9.9844 3
    endloop
  endfacet
  facet normal 0.642788 0.766044 -3.01166e-17
    outer loop
      vertex 5.53713 -9.9844 3
      vertex 5.24887 -9.74252 0
      vertex 5.24887 -9.74252 3
    endloop
  endfacet
  facet normal 0.788011 0.615661 6.18048e-17
    outer loop
      vertex 5.24887 -9.74252 3
      vertex 5.24887 -9.74252 0
      vertex 5.01719 -9.44599 0
    endloop
  endfacet
  facet normal 0.788011 0.615661 6.18048e-17
    outer loop
      vertex 5.01719 -9.44599 3
      vertex 5.24887 -9.74252 3
      vertex 5.01719 -9.44599 0
    endloop
  endfacet
  facet normal 0.898794 0.438371 1.51025e-16
    outer loop
      vertex 5.01719 -9.44599 3
      vertex 5.01719 -9.44599 0
      vertex 4.85223 -9.10777 0
    endloop
  endfacet
  facet normal 0.898794 0.438371 1.51025e-16
    outer loop
      vertex 4.85223 -9.10777 3
      vertex 5.01719 -9.44599 3
      vertex 4.85223 -9.10777 0
    endloop
  endfacet
  facet normal 0.970296 0.241922 2.33645e-16
    outer loop
      vertex 4.85223 -9.10777 3
      vertex 4.85223 -9.10777 0
      vertex 4.76119 -8.74264 0
    endloop
  endfacet
  facet normal 0.970296 0.241922 2.33645e-16
    outer loop
      vertex 4.76119 -8.74264 3
      vertex 4.85223 -9.10777 3
      vertex 4.76119 -8.74264 0
    endloop
  endfacet
  facet normal 4.11752e-16 -1.66359e-16 -1
    outer loop
      vertex -13.5893 -0.154952 3
      vertex -13.3789 0.157018 3
      vertex -13.7303 -0.503853 3
    endloop
  endfacet
  facet normal 4.11752e-16 -1.66359e-16 -1
    outer loop
      vertex -13.7303 -0.503853 3
      vertex -13.3789 0.157018 3
      vertex -13.1082 0.418419 3
    endloop
  endfacet
  facet normal 4.11752e-16 -1.66359e-16 -1
    outer loop
      vertex -13.7303 -0.503853 3
      vertex -13.1082 0.418419 3
      vertex -12.7891 0.617829 3
    endloop
  endfacet
  facet normal 4.11752e-16 -1.66359e-16 -1
    outer loop
      vertex -13.7303 -0.503853 3
      vertex -12.7891 0.617829 3
      vertex -12.4355 0.746533 3
    endloop
  endfacet
  facet normal 4.11752e-16 -1.66359e-16 -1
    outer loop
      vertex -13.7303 -0.503853 3
      vertex -12.4355 0.746533 3
      vertex -12.0628 0.798904 3
    endloop
  endfacet
  facet normal 4.11752e-16 -1.66359e-16 -1
    outer loop
      vertex -13.7303 -0.503853 3
      vertex -12.0628 0.798904 3
      vertex -11.6874 0.772654 3
    endloop
  endfacet
  facet normal 4.11752e-16 -1.66359e-16 -1
    outer loop
      vertex -13.7303 -0.503853 3
      vertex -11.6874 0.772654 3
      vertex -11.3257 0.668931 3
    endloop
  endfacet
  facet normal 4.11752e-16 -1.66359e-16 -1
    outer loop
      vertex -13.7303 -0.503853 3
      vertex -11.3257 0.668931 3
      vertex -12.6743 -2.66893 3
    endloop
  endfacet
  facet normal 4.11752e-16 -1.66359e-16 -1
    outer loop
      vertex -13.7303 -0.503853 3
      vertex -12.6743 -2.66893 3
      vertex -13.0065 -2.49227 3
    endloop
  endfacet
  facet normal 4.11752e-16 -1.66359e-16 -1
    outer loop
      vertex -13.7303 -0.503853 3
      vertex -13.0065 -2.49227 3
      vertex -13.2948 -2.25039 3
    endloop
  endfacet
  facet normal 4.11752e-16 -1.66359e-16 -1
    outer loop
      vertex -13.7303 -0.503853 3
      vertex -13.2948 -2.25039 3
      vertex -13.5265 -1.95386 3
    endloop
  endfacet
  facet normal 4.11752e-16 -1.66359e-16 -1
    outer loop
      vertex -13.7303 -0.503853 3
      vertex -13.5265 -1.95386 3
      vertex -13.6914 -1.61564 3
    endloop
  endfacet
  facet normal 4.11752e-16 -1.66359e-16 -1
    outer loop
      vertex -13.7303 -0.503853 3
      vertex -13.6914 -1.61564 3
      vertex -13.7825 -1.25051 3
    endloop
  endfacet
  facet normal 4.11752e-16 -1.66359e-16 -1
    outer loop
      vertex -13.7303 -0.503853 3
      vertex -13.7825 -1.25051 3
      vertex -13.7956 -0.874439 3
    endloop
  endfacet
endsolid OpenSCAD_Model
